<svg width="471" height="472" xmlns="http://www.w3.org/2000/svg" xmlns:xlink="http://www.w3.org/1999/xlink"
     overflow="hidden" viewBox="0 50 472 372" fill="#C5C6CE">
    <defs>
        <clipPath id="clip0i">
            <rect x="620" y="49" width="471" height="472"/>
        </clipPath>
        <clipPath id="clip1i">
            <path d="M887.222 14.1401 1157.17 284.662 887.222 555.182 617.274 284.662Z" fill-rule="evenodd"
                  clip-rule="evenodd"/>
        </clipPath>
        <clipPath id="clip2i">
            <path d="M887.222 14.1401 1157.17 284.662 887.222 555.182 617.274 284.662Z" fill-rule="evenodd"
                  clip-rule="evenodd"/>
        </clipPath>
        <clipPath id="clip3i">
            <path d="M887.222 14.1401 1157.17 284.662 887.222 555.182 617.274 284.662Z" fill-rule="evenodd"
                  clip-rule="evenodd"/>
        </clipPath>
    </defs>
    <g clip-path="url(#clip0i)" transform="translate(-620 -49)">
        <g clip-path="url(#clip1i)">
            <g clip-path="url(#clip2i)">
                <g clip-path="url(#clip3i)">
                    <path d="M470.05 191.616 470.05 169.249C470.05 163.071 475.055 158.066 481.233 158.066 487.411 158.066 492.417 163.071 492.417 169.249L492.417 191.616C492.417 197.794 487.411 202.8 481.233 202.8 475.055 202.8 470.05 197.795 470.05 191.616Z"
                          transform="matrix(1 0 0 1.00212 369.26 70.1754)"/>
                    <path d="M425.317 191.617 425.317 169.25C425.317 163.071 430.322 158.067 436.5 158.067 442.679 158.067 447.684 163.071 447.684 169.25L447.684 191.617C447.684 197.795 442.679 202.8 436.5 202.8 430.321 202.8 425.317 197.795 425.317 191.617Z"
                          transform="matrix(1 0 0 1.00212 369.26 70.1754)"/>
                    <path d="M380.584 191.617 380.584 169.25C380.584 163.071 385.589 158.067 391.768 158.067 397.945 158.067 402.951 163.071 402.951 169.25L402.951 191.617C402.951 197.795 397.945 202.8 391.768 202.8 385.589 202.8 380.583 197.795 380.584 191.617Z"
                          transform="matrix(1 0 0 1.00212 369.26 70.1754)"/>
                    <path d="M470.042 303.457 470.049 236.349C470.049 230.172 475.055 225.166 481.232 225.166 487.411 225.166 492.416 230.172 492.416 236.35L492.409 303.457C492.409 309.635 487.403 314.64 481.226 314.64 475.047 314.64 470.043 309.635 470.042 303.457Z"
                          transform="matrix(1 0 0 1.00212 369.26 70.1754)"/>
                    <path d="M425.309 303.457 425.316 236.35C425.316 230.172 430.321 225.166 436.5 225.166 442.678 225.166 447.683 230.172 447.683 236.349L447.675 303.457C447.675 309.635 442.67 314.64 436.492 314.64 430.314 314.64 425.309 309.635 425.309 303.457Z"
                          transform="matrix(1 0 0 1.00212 369.26 70.1754)"/>
                    <path d="M380.576 303.457 380.576 236.357C380.576 230.179 385.58 225.174 391.759 225.174 397.937 225.174 402.942 230.179 402.942 236.357L402.942 303.457C402.942 309.635 397.937 314.64 391.759 314.64 385.58 314.64 380.576 309.635 380.576 303.457Z"
                          transform="matrix(1 0 0 1.00212 369.26 70.1754)"/>
                    <path d="M335.843 269.907C335.827 245.245 355.786 225.174 380.576 225.174L492.417 225.166C517.085 225.151 537.165 245.231 537.15 269.9 537.157 294.576 517.085 314.648 492.409 314.64L380.576 314.64C355.93 314.656 335.827 294.575 335.843 269.907ZM492.417 247.533 380.576 247.54C368.22 247.556 358.226 257.503 358.21 269.907 358.225 282.249 368.235 292.258 380.576 292.273L492.409 292.273C504.743 292.266 514.775 282.233 514.784 269.899 514.767 257.562 504.783 247.548 492.417 247.533Z"
                          transform="matrix(1 0 0 1.00212 369.26 70.1754)"/>
                    <path d="M548.373 247.516 324.717 247.516 299.311 218.511 324.719 180.449 548.373 180.451 580.008 215.33Z"
                          transform="matrix(1 0 0 1.00212 369.26 70.1754)"/>
                    <path d="M580.008 215.331 578.786 213.983 303.002 214.082 299.312 218.51 324.717 247.516 548.373 247.516Z"
                          transform="matrix(1 0 0 1.00212 369.26 70.1754)"/>
                    <path d="M324.717 247.516 286.184 247.456C283.178 247.614 280.331 246.35 278.275 244.294 276.218 242.238 274.954 239.39 275.112 236.384L275.112 191.78C274.953 188.773 276.218 185.927 278.275 183.87 280.331 181.814 283.178 180.548 286.184 180.708L324.719 180.449Z"
                          transform="matrix(1 0 0 1.00212 369.26 70.1754)"/>
                    <path d="M686.776 313.788C682.505 315.528 677.76 314.579 674.596 311.416 673.964 310.783 609.904 247.672 548.374 247.514L548.374 180.449C609.904 180.291 673.964 117.18 674.597 116.547 677.76 113.384 682.505 112.435 686.776 114.174 691.046 115.915 693.735 119.869 693.577 124.456L693.577 213.982 693.577 303.507C693.735 308.094 691.046 312.048 686.776 313.788Z"
                          transform="matrix(1 0 0 1.00212 369.26 70.1754)"/>
                    <path d="M275.111 236.384C274.954 239.389 276.218 242.238 278.274 244.293 280.33 246.35 283.177 247.614 286.183 247.456L324.717 247.515 324.718 213.982 275.111 214.08Z"
                          transform="matrix(1 0 0 1.00212 369.26 70.1754)"/>
                    <path d="M686.776 313.788C682.505 315.528 677.76 314.579 674.596 311.416 673.964 310.783 609.904 247.672 548.374 247.514L548.375 213.982 693.577 213.982 693.577 303.507C693.735 308.094 691.046 312.048 686.776 313.788Z"
                          transform="matrix(1 0 0 1.00212 369.26 70.1754)"/>
                </g>
            </g>
        </g>
    </g>
</svg>