<?xml version="1.0" encoding="iso-8859-1"?>
<!-- Generator: Adobe Illustrator 16.0.0, SVG Export Plug-In . SVG Version: 6.00 Build 0)  -->
<!DOCTYPE svg PUBLIC "-//W3C//DTD SVG 1.1//EN" "http://www.w3.org/Graphics/SVG/1.1/DTD/svg11.dtd">
<svg version="1.1" id="Capa_1" xmlns="http://www.w3.org/2000/svg" xmlns:xlink="http://www.w3.org/1999/xlink" x="0px" y="0px"
	 width="1.5rem" height="1.5rem" viewBox="0 0 372.826 372.826" style="enable-background:new 0 0 372.826 372.826;"
	 xml:space="preserve" fill="#FFFFFF">
<g>
	<path d="M303.761,153.483h-17.666V99.692C286.095,44.727,241.378,0,186.416,0c-54.982,0-99.691,44.721-99.691,99.692v53.791h-17.66
		c-10.164,0-18.399,8.239-18.399,18.399v182.546c0,10.16,8.235,18.398,18.399,18.398h234.697c10.143,0,18.399-8.238,18.399-18.398
		V171.882C322.161,161.722,313.904,153.483,303.761,153.483z M123.519,99.692c0-34.687,28.21-62.897,62.896-62.897
		c34.678,0,62.889,28.21,62.889,62.897v53.791H123.519V99.692z" />
</g>
<g>
</g>
<g>
</g>
<g>
</g>
<g>
</g>
<g>
</g>
<g>
</g>
<g>
</g>
<g>
</g>
<g>
</g>
<g>
</g>
<g>
</g>
<g>
</g>
<g>
</g>
<g>
</g>
<g>
</g>
</svg>
