<svg width="1282" height="1282" xmlns="http://www.w3.org/2000/svg" xmlns:xlink="http://www.w3.org/1999/xlink" overflow="hidden" viewBox="-140 -140 1562 1562">
    <defs><clipPath id="clip0"><rect x="889" y="743" width="1282" height="1282"/></clipPath></defs>
    <g clip-path="url(#clip0)" transform="translate(-889 -743)">
        <path d="M1531 743C1720.6 743 1874.3 896.787 1874.3 1086.49L1874.3 1086.5 1874.3 1269.91 1820.91 1269.91 1820.91 1269.91 1935.23 1269.91C1969.9 1269.91 1998 1298.03 1998 1332.72L1998 1962.19C1998 1996.88 1969.9 2025 1935.23 2025L1126.77 2025C1092.1 2025 1064 1996.88 1064 1962.19L1064 1332.72C1064 1298.03 1092.1 1269.91 1126.77 1269.91L1746 1269.91 1746 1086.51 1746 1085.37 1745.88 1085.37 1741.61 1042.93C1721.45 944.381 1634.31 870.249 1529.85 870.249 1425.4 870.249 1338.26 944.381 1318.1 1042.93L1313.83 1085.37 1313.71 1085.37 1313.71 1086.51 1313.71 1092.72 1187.7 1092.72 1187.7 1086.49 1187.7 1086.49 1189.47 1051.37C1207.05 878.164 1353.25 743 1531 743Z" fill-rule="evenodd"/>
    </g>
</svg>