<svg width="1282" height="1282" xmlns="http://www.w3.org/2000/svg" xmlns:xlink="http://www.w3.org/1999/xlink" overflow="hidden" viewBox="-140 -140 1562 1562" fill="#C5C6CE">
    <defs><clipPath id="clip1"><rect x="3213" y="-88" width="1282" height="1282"/></clipPath></defs>
    <g clip-path="url(#clip1)" transform="translate(-3213 88)">
        <path d="M3852.85 39.15C3748.4 39.15 3661.26 113.224 3641.1 211.696L3636.83 254.101 3636.71 254.101 3636.71 255.246 3636.71 438.498 4069 438.498 4069 255.246 4069 254.101 4068.88 254.101 4064.61 211.696C4044.45 113.224 3957.31 39.15 3852.85 39.15ZM3854-88C4043.6-88 4197.3 65.6671 4197.3 255.225L4197.3 255.232 4197.3 438.498 4143.91 438.498 4143.91 438.498 4258.23 438.498C4292.9 438.498 4321 466.597 4321 501.258L4321 1130.24C4321 1164.9 4292.9 1193 4258.23 1193L3449.77 1193C3415.1 1193 3387 1164.9 3387 1130.24L3387 501.258C3387 466.597 3415.1 438.498 3449.77 438.498L3564.09 438.498 3564.09 438.498 3510.7 438.498 3510.7 255.225 3510.7 255.225 3512.47 220.132C3530.05 47.0591 3676.25-88 3854-88Z" fill-rule="evenodd"/>
    </g>
</svg>