<svg id="Capa_1" enable-background="new 0 0 512 512" height="512" viewBox="0 0 512 512" width="512" xmlns="http://www.w3.org/2000/svg"><g><g><path d="m70.369 479.411c42.965 42.965 113.089 43.747 155.813.543 20.188-20.414 30.681-46.809 31.483-73.441.594-19.728 12.483-37.429 30.433-45.636 7.507-3.433 14.554-8.2 20.783-14.304 29.27-28.687 28.683-76.089-.297-105.069l-38.088-38.088c-28.98-28.98-76.382-29.567-105.069-.297-6.104 6.228-10.872 13.275-14.304 20.782-8.207 17.949-25.909 29.839-45.636 30.433-26.633.802-53.027 11.295-73.441 31.483-43.204 42.724-42.422 112.848.543 155.813z" fill="#fac574"/><g><circle cx="180.639" cy="331.36" fill="#685e67" r="41.822"/><path d="m210.215 360.934c-16.332 16.332-42.818 16.332-59.15 0-12.037-12.038-15.202-29.58-9.494-44.517 2.035 5.332 5.2 10.328 9.494 14.632 16.332 16.332 42.818 16.332 59.15 0 4.304-4.304 7.469-9.3 9.504-14.632 5.698 14.937 2.533 32.479-9.504 44.517z" fill="#554e55"/></g><path d="m308.876 346.576c-6.227 6.105-13.269 10.867-20.778 14.297-17.949 8.212-29.834 25.917-30.435 45.637-.804 26.639-11.295 53.034-31.483 73.446-42.727 43.205-112.845 42.421-155.806-.539l-22.63-22.63c42.961 42.961 113.09 43.744 155.806.539 20.188-20.412 30.689-46.807 31.483-73.436.6-19.73 12.485-37.435 30.435-45.637 7.509-3.439 14.561-8.201 20.788-14.307 29.265-28.684 28.674-76.092-.305-105.071l22.63 22.63c28.979 28.98 29.569 76.377.295 105.071z" fill="#e8b66b"/><g><path d="m251.016 294.083 182.669-189.561-26.208-26.208-189.561 182.669c-2.05 1.975-2.08 5.248-.067 7.261l25.907 25.906c2.012 2.013 5.285 1.983 7.26-.067z" fill="#c76d3d"/></g><g><path d="m251.019 294.079c-1.979 2.051-5.252 2.086-7.267.072l-18.218-18.218c2.015 2.015 5.296 1.986 7.267-.072l182.662-189.556 18.218 18.218z" fill="#aa5e33"/></g><g style="fill:none;stroke:#000;stroke-width:15;stroke-linecap:round;stroke-linejoin:round;stroke-miterlimit:10"><path d=""/><path d=""/></g><g><g fill="#685e67"><path d="m504.388 80.838c-1.947 0-3.896-.743-5.383-2.229l-65.615-65.616c-2.972-2.972-2.972-7.792 0-10.764 2.973-2.972 7.792-2.972 10.765 0l65.616 65.615c2.972 2.972 2.972 7.792 0 10.764-1.487 1.487-3.436 2.23-5.383 2.23z"/><path d="m483.951 96.939c-1.948 0-3.896-.743-5.383-2.229l-61.28-61.28c-2.972-2.972-2.972-7.792 0-10.764 2.974-2.973 7.793-2.972 10.765 0l61.28 61.28c2.972 2.972 2.972 7.792 0 10.764-1.487 1.486-3.435 2.229-5.382 2.229z"/><path d="m462.43 111.957c-1.948 0-3.896-.743-5.383-2.229l-54.776-54.777c-2.972-2.972-2.972-7.792 0-10.764 2.974-2.973 7.793-2.972 10.765 0l54.776 54.777c2.972 2.972 2.972 7.792 0 10.764-1.486 1.485-3.434 2.229-5.382 2.229z"/></g><g fill="#554e55"><path d="m509.77 67.845-25.519-25.52c-3.571 3.605-7.139 7.214-10.721 10.808l25.475 25.475c1.487 1.486 3.435 2.229 5.383 2.229 1.947 0 3.896-.743 5.382-2.229 2.972-2.972 2.972-7.791 0-10.763z"/><path d="m466.033 60.646c-3.586 3.59-7.166 7.187-10.753 10.776l23.288 23.288c1.487 1.487 3.434 2.229 5.383 2.229 1.947 0 3.896-.743 5.382-2.229 2.972-2.972 2.972-7.792 0-10.764z"/><path d="m447.784 78.934c-3.584 3.592-7.164 7.189-10.74 10.79l20.003 20.003c1.487 1.487 3.434 2.229 5.383 2.229 1.948 0 3.896-.743 5.383-2.229 2.972-2.972 2.972-7.792 0-10.764z"/></g><path d="m429.941 107.047-24.99-24.99c-2.088-2.088-2.289-5.406-.47-7.731l47.174-60.276c4.462-5.701 12.906-6.214 18.024-1.095l29.362 29.362c5.119 5.119 4.606 13.563-1.095 18.024l-60.276 47.174c-2.323 1.822-5.641 1.62-7.729-.468z" fill="#fac574"/><path d="m503.474 56.014-65.806 51.503c-2.324 1.82-5.634 1.619-7.72-.468l-20.297-20.297c2.087 2.087 5.404 2.295 7.728.475l65.807-51.503c2.756-2.166 3.008-6.26.532-8.735l20.29 20.29c2.48 2.482 2.229 6.576-.534 8.735z" fill="#e8b66b"/></g><g fill="#fef0dc"><path d="m139.428 416.615c-1.947 0-3.896-.743-5.383-2.229l-36.433-36.433c-2.972-2.972-2.972-7.792 0-10.764 2.973-2.972 7.792-2.972 10.765 0l36.433 36.433c2.972 2.972 2.972 7.792 0 10.764-1.486 1.486-3.434 2.229-5.382 2.229z"/><path d="m118.775 437.269c-1.947 0-3.896-.743-5.383-2.229l-36.433-36.433c-2.972-2.972-2.972-7.792 0-10.764 2.973-2.972 7.792-2.972 10.765 0l36.433 36.433c2.972 2.972 2.972 7.792 0 10.764-1.486 1.485-3.435 2.229-5.382 2.229z"/></g></g><path d="m450.905 68.707c-1.947 0-3.896-.743-5.382-2.229-2.973-2.973-2.973-7.792-.001-10.765l12.433-12.434c2.973-2.972 7.793-2.973 10.764 0 2.973 2.973 2.973 7.792.001 10.765l-12.433 12.434c-1.486 1.486-3.435 2.229-5.382 2.229z" fill="#c76d3d"/><g fill="#8e4d29"><path d="m327.549 220.039c-1.948 0-3.896-.743-5.383-2.229l-27.976-27.977c-2.972-2.973-2.972-7.792.001-10.764 2.971-2.973 7.791-2.972 10.764 0l27.976 27.977c2.972 2.973 2.972 7.792-.001 10.764-1.485 1.486-3.433 2.229-5.381 2.229z"/><path d="m354.409 193.179c-1.947 0-3.896-.743-5.383-2.229l-27.977-27.977c-2.972-2.972-2.972-7.792 0-10.764 2.973-2.972 7.792-2.972 10.765 0l27.977 27.977c2.972 2.972 2.972 7.792 0 10.764-1.486 1.486-3.434 2.229-5.382 2.229z"/><path d="m381.269 166.319c-1.948 0-3.896-.743-5.383-2.229l-27.976-27.977c-2.972-2.972-2.972-7.792 0-10.764 2.974-2.973 7.793-2.973 10.765 0l27.976 27.977c2.972 2.972 2.972 7.792 0 10.764-1.486 1.486-3.435 2.229-5.382 2.229z"/><path d="m402.505 140.765c-1.947 0-3.896-.743-5.383-2.229l-23.66-23.66c-2.972-2.972-2.972-7.792 0-10.764 2.973-2.972 7.792-2.972 10.765 0l23.66 23.66c2.972 2.972 2.972 7.792 0 10.764-1.486 1.486-3.434 2.229-5.382 2.229z"/><path d="m301.507 248.202c-1.947 0-3.896-.743-5.383-2.229l-30.136-30.135c-2.972-2.972-2.972-7.792 0-10.764 2.973-2.972 7.792-2.972 10.765 0l30.136 30.135c2.972 2.972 2.972 7.792 0 10.764-1.486 1.486-3.434 2.229-5.382 2.229z"/><path d="m274.404 275.305c-1.948 0-3.896-.743-5.383-2.229l-30.135-30.135c-2.972-2.972-2.972-7.792 0-10.764 2.974-2.973 7.793-2.973 10.765 0l30.135 30.135c2.972 2.972 2.972 7.792 0 10.764-1.486 1.485-3.434 2.229-5.382 2.229z"/></g></g></svg>