<?xml version="1.0" encoding="iso-8859-1"?>
<!-- Generator: Adobe Illustrator 19.0.0, SVG Export Plug-In . SVG Version: 6.00 Build 0)  -->
<svg version="1.1" id="Capa_1" xmlns="http://www.w3.org/2000/svg" xmlns:xlink="http://www.w3.org/1999/xlink" x="0px" y="0px"
	 viewBox="0 0 512 512" style="enable-background:new 0 0 512 512;" xml:space="preserve">
<rect x="208.97" y="204.54" style="fill:#A66856;" width="94.07" height="83.88"/>
<g>
	<path style="fill:#F3B573;" d="M212.049,348.625H39.315c-2.134,0-3.891-1.674-3.995-3.805l-8.535-175.27H224.58l-8.535,175.27
		C215.941,346.951,214.183,348.625,212.049,348.625z"/>
	<path style="fill:#F3B573;" d="M472.685,348.625H299.951c-2.134,0-3.892-1.674-3.995-3.805l-8.535-175.27h197.795l-8.535,175.27
		C476.577,346.951,474.819,348.625,472.685,348.625z"/>
</g>
<g>
	<path style="fill:#F5A257;" d="M454.567,169.55l-8.72,179.075h26.838c2.133,0,3.891-1.674,3.995-3.805l8.535-175.27H454.567z"/>
	<path style="fill:#F5A257;" d="M194.042,169.55l-8.72,179.075h26.838c2.133,0,3.891-1.674,3.995-3.805l8.535-175.27H194.042z"/>
</g>
<g>
	<path style="fill:#FFDEA9;" d="M231.911,210.374H19.453c-2.209,0-4-1.791-4-4V136.5c0-2.209,1.791-4,4-4h212.459
		c2.209,0,4,1.791,4,4v69.874C235.911,208.583,234.121,210.374,231.911,210.374z"/>
	<path style="fill:#FFDEA9;" d="M492.547,210.374H280.089c-2.209,0-4-1.791-4-4V136.5c0-2.209,1.791-4,4-4h212.459
		c2.209,0,4,1.791,4,4v69.874C496.547,208.583,494.756,210.374,492.547,210.374z"/>
</g>
<g>
	<path style="fill:#FFBF7B;" d="M492.547,210.374h-26.905V132.5h26.905c2.209,0,4,1.791,4,4v69.874
		C496.547,208.583,494.756,210.374,492.547,210.374z"/>
	<path style="fill:#FFBF7B;" d="M231.911,210.374h-26.905V132.5h26.905c2.209,0,4,1.791,4,4v69.874
		C235.911,208.583,234.121,210.374,231.911,210.374z"/>
</g>
<g>
	<path style="fill:#735458;" d="M245.186,183.958H6.178c-3.412,0-6.178-2.766-6.178-6.178v-14.402c0-3.412,2.766-6.178,6.178-6.178
		h239.008c3.412,0,6.178,2.766,6.178,6.178v14.402C251.364,181.192,248.598,183.958,245.186,183.958z"/>
	<path style="fill:#735458;" d="M505.822,183.958H266.814c-3.412,0-6.178-2.766-6.178-6.178v-14.402
		c0-3.412,2.766-6.178,6.178-6.178h239.008c3.412,0,6.178,2.766,6.178,6.178v14.402C512,181.192,509.234,183.958,505.822,183.958z"
		/>
</g>
<g>
	<path style="fill:#5C4346;" d="M505.819,157.2h-30.905c3.414,0,6.181,2.765,6.181,6.175v14.408c0,3.41-2.767,6.175-6.181,6.175
		h30.905c3.414,0,6.181-2.765,6.181-6.175v-14.408C512,159.965,509.233,157.2,505.819,157.2z"/>
	<path style="fill:#5C4346;" d="M245.183,157.2h-30.905c3.414,0,6.181,2.765,6.181,6.175v14.408c0,3.41-2.767,6.175-6.181,6.175
		h30.905c3.414,0,6.181-2.765,6.181-6.175v-14.408C251.364,159.965,248.597,157.2,245.183,157.2z"/>
</g>
<g>
	<path style="fill:#E8E6E1;" d="M164.829,366.114V183.958h26.785v182.156c0,7.393-5.993,13.386-13.386,13.386h-0.013
		C170.822,379.5,164.829,373.507,164.829,366.114z"/>
	<path style="fill:#E8E6E1;" d="M59.751,366.114V183.958h26.785v182.156c0,7.393-5.993,13.386-13.386,13.386h-0.013
		C65.744,379.5,59.751,373.507,59.751,366.114z"/>
	<path style="fill:#E8E6E1;" d="M425.465,366.114V183.958h26.785v182.156c0,7.393-5.993,13.386-13.386,13.386h-0.013
		C431.458,379.5,425.465,373.507,425.465,366.114z"/>
	<path style="fill:#E8E6E1;" d="M320.386,366.114V183.958h26.785v182.156c0,7.393-5.993,13.386-13.386,13.386h-0.013
		C326.379,379.5,320.386,373.507,320.386,366.114z"/>
</g>
<g>
</g>
<g>
</g>
<g>
</g>
<g>
</g>
<g>
</g>
<g>
</g>
<g>
</g>
<g>
</g>
<g>
</g>
<g>
</g>
<g>
</g>
<g>
</g>
<g>
</g>
<g>
</g>
<g>
</g>
</svg>
