<?xml version="1.0" encoding="iso-8859-1"?>
<!-- Generator: Adobe Illustrator 19.0.0, SVG Export Plug-In . SVG Version: 6.00 Build 0)  -->
<svg version="1.1" id="Capa_1" xmlns="http://www.w3.org/2000/svg" xmlns:xlink="http://www.w3.org/1999/xlink" x="0px" y="0px"
	 viewBox="0 0 512 512" style="enable-background:new 0 0 512 512;" xml:space="preserve">
<g>
	<path style="fill:#7D8F9E;" d="M67.251,253.337c-4.204,0-7.612-3.407-7.612-7.612V175.43c0-4.205,3.408-7.612,7.612-7.612
		s7.612,3.407,7.612,7.612v70.297C74.863,249.931,71.455,253.337,67.251,253.337z"/>
	<path style="fill:#7D8F9E;" d="M437.138,232.025c-4.205,0-7.612,3.407-7.612,7.612v56.529c0,4.205,3.407,7.612,7.612,7.612
		c4.205,0,7.612-3.407,7.612-7.612v-56.529C444.75,235.433,441.342,232.025,437.138,232.025z"/>
	<path style="fill:#7D8F9E;" d="M67.253,389.431c-4.204,0-7.612,3.408-7.612,7.612v67.253c0,4.205,3.408,7.612,7.612,7.612
		s7.612-3.407,7.612-7.612v-67.253C74.865,392.838,71.457,389.431,67.253,389.431z"/>
</g>
<path style="fill:#DC1C4A;" d="M134.502,280.397v-28.581c0-3.363-2.726-6.089-6.089-6.089H6.089c-3.363,0-6.089,2.726-6.089,6.089
	v139.134c0,3.363,2.726,6.089,6.089,6.089h120.333L134.502,280.397z"/>
<path style="fill:#7D8F9E;" d="M437.138,471.907c-4.205,0-7.612-3.407-7.612-7.612v-84.065c0-4.205,3.407-7.612,7.612-7.612
	c4.205,0,7.612,3.407,7.612,7.612v84.065C444.75,468.5,441.342,471.907,437.138,471.907z"/>
<path style="fill:#AABFCF;" d="M487.578,488.723c-0.798,0-1.61-0.127-2.408-0.393l-48.032-16.012l-48.032,16.012
	c-3.992,1.326-8.3-0.825-9.628-4.814c-1.329-3.988,0.825-8.3,4.814-9.628l50.439-16.813c1.564-0.522,3.251-0.522,4.815,0
	l50.439,16.813c3.988,1.329,6.143,5.641,4.814,9.628C493.734,486.705,490.764,488.723,487.578,488.723z"/>
<path style="fill:#DC1C4A;" d="M373.724,380.231h124.575c3.363,0,6.089-2.726,6.089-6.089v-71.886c0-3.363-2.726-6.089-6.089-6.089
	H366.047L373.724,380.231z"/>
<path style="fill:#B31E48;" d="M498.299,296.167h-20.297c3.363,0,6.089,2.726,6.089,6.089v71.886c0,3.363-2.726,6.089-6.089,6.089
	h20.297c3.363,0,6.089-2.726,6.089-6.089v-71.886C504.388,298.893,501.663,296.167,498.299,296.167z"/>
<path style="fill:#D0E2ED;" d="M504.388,313.774h-133.2c-1.246,0-2.419,0.305-3.458,0.836l1.285,14.068
	c0.689,0.205,1.417,0.319,2.173,0.319h133.2L504.388,313.774L504.388,313.774z"/>
<rect x="484.092" y="313.777" style="fill:#AABFCF;" width="20.297" height="15.223"/>
<path style="fill:#B31E48;" d="M386.698,346.604c0,11.611-1.472,22.879-4.238,33.627h19.226c2.424-10.823,3.711-22.073,3.711-33.627
	c0-17.673-3.002-34.642-8.508-50.438h-19.979C383.217,311.743,386.698,328.767,386.698,346.604z"/>
<path style="fill:#AABFCF;" d="M401.858,313.774h-19.207c1.248,4.97,2.216,10.051,2.893,15.223h18.841
	C403.794,323.84,402.949,318.762,401.858,313.774z"/>
<g>
	<path style="fill:#FDBE40;" d="M411.918,387.842c-4.205,0-7.612-3.407-7.612-7.612v-16.812c0-4.205,3.407-7.612,7.612-7.612
		c4.205,0,7.612,3.407,7.612,7.612v16.812C419.529,384.435,416.122,387.842,411.918,387.842z"/>
	<path style="fill:#FDBE40;" d="M462.358,387.842c-4.205,0-7.612-3.407-7.612-7.612v-16.812c0-4.205,3.407-7.612,7.612-7.612
		c4.205,0,7.612,3.407,7.612,7.612v16.812C469.969,384.435,466.562,387.842,462.358,387.842z"/>
	<path style="fill:#FDBE40;" d="M169.068,442.845c-3.813-1.768-8.338-0.111-10.108,3.702l-14.548,31.359
		c-1.769,3.814-0.112,8.339,3.701,10.108c1.036,0.481,2.126,0.708,3.198,0.708c2.872,0,5.621-1.634,6.91-4.411l14.549-31.359
		C174.538,449.139,172.881,444.614,169.068,442.845z"/>
	<path style="fill:#FDBE40;" d="M359.977,477.907l-14.549-31.359c-1.769-3.814-6.294-5.47-10.108-3.702
		c-3.814,1.769-5.471,6.295-3.701,10.108l14.549,31.359c1.289,2.777,4.037,4.411,6.91,4.411c1.073,0,2.162-0.228,3.198-0.708
		C360.089,486.245,361.746,481.718,359.977,477.907z"/>
</g>
<circle style="fill:#DC1C4A;" cx="252.195" cy="346.608" r="134.5"/>
<circle style="fill:#D0E2ED;" cx="252.195" cy="346.608" r="109.281"/>
<g>
	<path style="fill:#FDBE40;" d="M42.034,372.618c-4.204,0-7.612,3.408-7.612,7.612v16.813c0,4.205,3.408,7.612,7.612,7.612
		s7.612-3.407,7.612-7.612v-16.813C49.645,376.026,46.237,372.618,42.034,372.618z"/>
	<path style="fill:#FDBE40;" d="M92.474,372.618c-4.204,0-7.612,3.408-7.612,7.612v16.813c0,4.205,3.408,7.612,7.612,7.612
		s7.612-3.407,7.612-7.612v-16.813C100.085,376.026,96.677,372.618,92.474,372.618z"/>
</g>
<path style="fill:#AABFCF;" d="M120.1,473.889l-50.439-16.813c-1.562-0.523-3.252-0.523-4.814,0l-50.44,16.813
	c-3.988,1.329-6.143,5.641-4.815,9.628c1.064,3.19,4.033,5.206,7.22,5.206c0.798,0,1.61-0.127,2.408-0.393l48.033-16.012
	l48.032,16.012c3.986,1.329,8.298-0.825,9.628-4.814C126.243,479.528,124.087,475.218,120.1,473.889z"/>
<path style="fill:#7D8F9E;" d="M437.138,154.05c-4.205,0-7.612,3.407-7.612,7.612v22.902c0,4.205,3.407,7.612,7.612,7.612
	c4.205,0,7.612-3.407,7.612-7.612v-22.902C444.75,157.458,441.342,154.05,437.138,154.05z"/>
<path style="fill:#FDBE40;" d="M387.545,217.387L434.116,244c1.872,1.07,4.17,1.07,6.043,0l46.572-26.613
	c4.091-2.337,4.091-8.236,0-10.574L440.16,180.2c-1.872-1.07-4.17-1.07-6.043,0l-46.572,26.613
	C383.454,209.15,383.454,215.05,387.545,217.387z"/>
<g>
	<path style="fill:#7D8F9E;" d="M167.746,61.171c-2.973-2.972-7.792-2.972-10.764,0l-29.213,29.213
		c-2.973,2.974-2.973,7.792,0,10.765c1.486,1.486,3.434,2.229,5.382,2.229s3.896-0.743,5.382-2.229l29.213-29.213
		C170.718,68.962,170.718,64.144,167.746,61.171z"/>
	<path style="fill:#7D8F9E;" d="M79.141,157.386c-1.948,0-3.896-0.743-5.382-2.229c-2.973-2.974-2.973-7.792,0-10.765l47.556-47.556
		c2.973-2.972,7.792-2.972,10.764,0c2.973,2.974,2.973,7.792,0,10.765l-47.556,47.556C83.038,156.643,81.09,157.386,79.141,157.386z
		"/>
</g>
<path style="fill:#FDBE40;" d="M92.632,51.449l55.837,26.057c1.296,0.605,2.338,1.647,2.943,2.943l26.057,55.837
	c2.881,6.174-5.005,11.698-9.824,6.881L85.751,61.273C80.934,56.454,86.458,48.568,92.632,51.449z"/>
<path style="fill:#FFA912;" d="M203.41,168.168L60.748,25.506c-2.973-2.972-7.792-2.972-10.764,0c-2.973,2.974-2.973,7.792,0,10.765
	l142.662,142.662c1.486,1.486,3.434,2.229,5.382,2.229c1.948,0,3.896-0.743,5.382-2.229
	C206.383,175.96,206.383,171.141,203.41,168.168z"/>
<circle style="fill:#FDBE40;" cx="67.255" cy="161.658" r="16.813"/>
<path style="fill:#AABFCF;" d="M252.195,440.661c-57.796,0-105.106-44.867-109.015-101.671c-0.174,2.516-0.268,5.053-0.268,7.614
	c0,60.355,48.928,109.283,109.284,109.283S361.48,406.959,361.48,346.604c0-2.561-0.095-5.098-0.268-7.614
	C357.301,395.794,309.991,440.661,252.195,440.661z"/>
<g>
	<path style="fill:#B31E48;" d="M252.195,465.882c-71.729,0-130.336-56.149-134.284-126.89c-0.141,2.52-0.218,5.057-0.218,7.613
		c0,74.284,60.219,134.503,134.503,134.503s134.504-60.219,134.504-134.503c0-2.555-0.078-5.093-0.219-7.613
		C382.531,409.733,323.924,465.882,252.195,465.882z"/>
	<path style="fill:#B31E48;" d="M117.692,346.604c0-23.573,6.072-45.726,16.725-64.992l0.084-1.215v-28.581
		c0-0.928-0.213-1.803-0.585-2.59c-21.82,26.472-34.925,60.394-34.925,97.378c0,17.672,3.002,34.64,8.508,50.436h18.922l0.158-2.278
		C120.843,379.809,117.692,363.576,117.692,346.604z"/>
</g>
<rect y="263.338" style="fill:#D0E2ED;" width="134.5" height="15.223"/>
<path style="fill:#AABFCF;" d="M114.901,278.558h19.6v-15.223h-10.914C120.414,268.225,117.511,273.304,114.901,278.558z"/>
<path style="fill:#FFA912;" d="M504.388,204.489H369.885c-4.205,0-7.612,3.407-7.612,7.612s3.407,7.612,7.612,7.612h134.504
	c4.205,0,7.612-3.407,7.612-7.612C512,207.897,508.593,204.489,504.388,204.489z"/>
<g>
</g>
<g>
</g>
<g>
</g>
<g>
</g>
<g>
</g>
<g>
</g>
<g>
</g>
<g>
</g>
<g>
</g>
<g>
</g>
<g>
</g>
<g>
</g>
<g>
</g>
<g>
</g>
<g>
</g>
</svg>
