<?xml version="1.0" encoding="iso-8859-1"?>
<!-- Generator: Adobe Illustrator 19.0.0, SVG Export Plug-In . SVG Version: 6.00 Build 0)  -->
<svg version="1.1" id="Capa_1" xmlns="http://www.w3.org/2000/svg" xmlns:xlink="http://www.w3.org/1999/xlink" x="0px" y="0px"
	 viewBox="0 0 512.001 512.001" style="enable-background:new 0 0 512.001 512.001;" xml:space="preserve">
<path style="fill:#B8C3DA;" d="M33.872,510.822L1.179,478.128c-1.572-1.572-1.572-4.121,0-5.694L472.435,1.179
	c1.572-1.572,4.121-1.572,5.694,0l32.693,32.693c1.572,1.572,1.572,4.121,0,5.694L39.565,510.822
	C37.993,512.393,35.444,512.393,33.872,510.822z"/>
<path style="fill:#98A1B4;" d="M483.89,6.94l8.608,8.608L15.549,492.498l18.323,18.323c1.572,1.572,4.121,1.572,5.694,0
	L510.821,39.565c1.572-1.572,1.572-4.121,0-5.694L483.89,6.94z"/>
<g>
	<circle style="fill:#384256;" cx="272.94" cy="239.06" r="7.5"/>
	<circle style="fill:#384256;" cx="239.11" cy="272.891" r="7.5"/>
	<circle style="fill:#384256;" cx="205.28" cy="306.72" r="7.5"/>
	<circle style="fill:#384256;" cx="171.45" cy="340.55" r="7.5"/>
	<circle style="fill:#384256;" cx="137.62" cy="374.38" r="7.5"/>
	<circle style="fill:#384256;" cx="103.79" cy="408.21" r="7.5"/>
</g>
<g>
	<path style="fill:#98A1B4;" d="M33.872,510.822L1.179,478.128c-1.572-1.572-1.572-4.121,0-5.694l25.943-25.943l38.386,38.386
		L39.565,510.82C37.993,512.393,35.444,512.393,33.872,510.822z"/>
	<path style="fill:#98A1B4;" d="M435.985,127.806l-94.219,93.134c-1.574,1.556-4.11,1.549-5.676-0.015l-22.2-22.182l-23.377-23.349
		c-1.58-1.578-1.574-4.142,0.015-5.712l94.219-93.134c1.574-1.556,4.11-1.549,5.676,0.015l23.413,23.395L436,122.094
		C437.58,123.673,437.573,126.236,435.985,127.806z"/>
</g>
<path style="fill:#777F8E;" d="M435.985,127.806l-94.219,93.134c-1.574,1.556-4.11,1.549-5.676-0.015l-22.2-22.182l0.021-0.01
	l99.925-98.774L436,122.096C437.58,123.673,437.573,126.236,435.985,127.806z"/>
<circle style="fill:#384256;" cx="363.26" cy="148.74" r="12.96"/>
<g>
</g>
<g>
</g>
<g>
</g>
<g>
</g>
<g>
</g>
<g>
</g>
<g>
</g>
<g>
</g>
<g>
</g>
<g>
</g>
<g>
</g>
<g>
</g>
<g>
</g>
<g>
</g>
<g>
</g>
</svg>
