<?xml version="1.0" encoding="iso-8859-1"?>
<!-- Generator: Adobe Illustrator 19.0.0, SVG Export Plug-In . SVG Version: 6.00 Build 0)  -->
<svg version="1.1" id="Capa_1" xmlns="http://www.w3.org/2000/svg" xmlns:xlink="http://www.w3.org/1999/xlink" x="0px" y="0px"
	 viewBox="0 0 512 512" style="enable-background:new 0 0 512 512;" xml:space="preserve">
<path style="fill:#464646;" d="M333.607,213.667H178.393v-36.874c0-2.274,1.844-4.118,4.118-4.118h146.978
	c2.274,0,4.118,1.844,4.118,4.118L333.607,213.667L333.607,213.667z"/>
<g>
	<path style="fill:#353535;" d="M36.692,471H13.787c-2.209,0-4-1.791-4-4V290.976h30.905V467C40.692,469.209,38.901,471,36.692,471z
		"/>
	<path style="fill:#353535;" d="M498.213,471h-22.905c-2.209,0-4-1.791-4-4V290.976h30.905V467
		C502.213,469.209,500.422,471,498.213,471z"/>
</g>
<path style="fill:#595959;" d="M486.369,211.897c-2.829,0-5.537-1.608-6.807-4.343l-62.976-135.62
	c-1.745-3.757-0.113-8.217,3.644-9.961c3.757-1.745,8.216-0.113,9.961,3.644l62.976,135.62c1.745,3.757,0.113,8.217-3.644,9.961
	C488.501,211.672,487.426,211.897,486.369,211.897z"/>
<path style="fill:#464646;" d="M466.315,66.994L31.175,211.101c-6.912,2.289-14.349-1.526-16.611-8.52l0,0
	c-2.262-6.995,1.508-14.521,8.419-16.81L458.124,41.665c6.912-2.289,14.349,1.526,16.611,8.52l0,0
	C476.997,57.18,473.227,64.705,466.315,66.994z"/>
<g>
	<rect x="240.55" y="290.97" style="fill:#595959;" width="30.905" height="154.24"/>
	<path style="fill:#595959;" d="M498.093,290.976H13.907v-91.555h480.185c2.209,0,4,1.791,4,4L498.093,290.976L498.093,290.976z"/>
</g>
<path style="fill:#464646;" d="M498.093,290.976h-30.905v-91.555h26.905c2.209,0,4,1.791,4,4V290.976z"/>
<rect x="13.907" y="264.23" style="fill:#FFDEA9;" width="484.19" height="26.746"/>
<rect x="450.19" y="264.23" style="fill:#FFBF7B;" width="30.905" height="26.746"/>
<g>
	<path style="fill:#353535;" d="M271.453,437.21h-30.905v-23.421c0-8.528,6.913-15.442,15.442-15.442h0.022
		c8.528,0,15.442,6.913,15.442,15.442L271.453,437.21L271.453,437.21z"/>
	<path style="fill:#353535;" d="M229.215,437.21H198.31v-23.421c0-8.528,6.913-15.442,15.442-15.442h0.022
		c8.528,0,15.442,6.913,15.442,15.442v23.421H229.215z"/>
	<path style="fill:#353535;" d="M313.69,437.21h-30.905v-23.421c0-8.528,6.913-15.442,15.442-15.442h0.022
		c8.528,0,15.442,6.913,15.442,15.442L313.69,437.21L313.69,437.21z"/>
</g>
<path style="fill:#FFDEA9;" d="M274.543,243.312h-37.087c-4.142,0-7.5-3.358-7.5-7.5s3.358-7.5,7.5-7.5h37.087
	c4.142,0,7.5,3.358,7.5,7.5S278.686,243.312,274.543,243.312z"/>
<path style="fill:#464646;" d="M512,268.225v53.722c0,2.209-1.791,4-4,4H4c-2.209,0-4-1.791-4-4v-53.722c0-2.209,1.791-4,4-4h26.905
	v26.746h450.189v-26.746H508C510.209,264.225,512,266.015,512,268.225z"/>
<g>
	<path style="fill:#353535;" d="M508,325.947h-26.905v-61.722H508c2.209,0,4,1.791,4,4v53.722
		C512,324.156,510.209,325.947,508,325.947z"/>
	<path style="fill:#353535;" d="M325.025,455.955h-138.05c-2.274,0-4.118-1.844-4.118-4.118v-18.511
		c0-2.274,1.844-4.118,4.118-4.118h138.05c2.274,0,4.118,1.844,4.118,4.118v18.511C329.143,454.112,327.299,455.955,325.025,455.955
		z"/>
</g>
<g>
</g>
<g>
</g>
<g>
</g>
<g>
</g>
<g>
</g>
<g>
</g>
<g>
</g>
<g>
</g>
<g>
</g>
<g>
</g>
<g>
</g>
<g>
</g>
<g>
</g>
<g>
</g>
<g>
</g>
</svg>
