<svg height="511pt" viewBox="-61 0 511 511.94449" width="511pt" xmlns="http://www.w3.org/2000/svg"><path d="m261.976562 212.617188c-23.570312 23.429687-36.785156 55.320312-36.6875 88.558593v82.75c0 8.839844-7.164062 16-16 16-8.835937 0-16-7.160156-16-16v-303.277343c.605469-37.730469-25.289062-70.730469-62.078124-79.121094-42.058594-8.460938-83.019532 18.75-91.519532 60.800781l-2.5625 12.800781-15.632812-5.203125c-8.335938-2.785156-17.363282 1.683594-20.207032 10-2.785156 8.378907 1.738282 17.429688 10.113282 20.226563l32.832031 10.941406c4.359375 1.46875 9.136719.992188 13.121094-1.3125 3.980469-2.300781 6.777343-6.207031 7.679687-10.71875l4-20.015625c1.210938-6.109375 6.570313-10.507813 12.796875-10.511719 3.636719 0 7.105469 1.511719 9.582031 4.171875 2.472657 2.664063 3.726563 6.234375 3.460938 9.859375l-21.585938 292.847656c-2.664062 37.734376 11.640626 74.691407 39.007813 100.800782 25.199219 23.464844 58.5 36.265625 92.929687 35.710937h4.0625c70.691407 0 128-57.304687 128-128v-2.75c-.066406-24.746093 9.765626-48.488281 27.3125-65.9375zm0 0" fill="#ffd740"/><path d="m209.289062 463.925781h-4.0625c-34.429687.554688-67.730468-12.246093-92.929687-35.710937-20.003906-19.136719-33.21875-44.285156-37.632813-71.617188l-1.375 18.816406c-2.664062 37.734376 11.640626 74.691407 39.007813 100.800782 25.199219 23.464844 58.5 36.265625 92.929687 35.710937h4.0625c70.691407 0 128-57.304687 128-128 0 0-16 80-128 80zm0 0" fill="#ffc400"/><path d="m241.292969 191.929688c6.25-6.246094 16.378906-6.246094 22.628906 0l121.371094 121.375c6.25 6.25 6.25 16.378906 0 22.628906-6.246094 6.246094-16.378907 6.246094-22.625 0l-121.375-121.375c-6.246094-6.25-6.246094-16.378906 0-22.628906zm0 0" fill="#E1A42C"/><g fill="#fff"><path d="m129.289062 63.925781h32v32h-32zm0 0"/><path d="m129.289062 127.925781h32v32h-32zm0 0"/></g></svg>