<?xml version="1.0" encoding="iso-8859-1"?>
<!-- Generator: Adobe Illustrator 19.0.0, SVG Export Plug-In . SVG Version: 6.00 Build 0)  -->
<svg version="1.1" id="Capa_1" xmlns="http://www.w3.org/2000/svg" xmlns:xlink="http://www.w3.org/1999/xlink" x="0px" y="0px"
	 viewBox="0 0 480 480" style="enable-background:new 0 0 480 480;" xml:space="preserve">
<path style="fill:#FFF89B;" d="M306.104,271.212L264,159.932h-48l-12.976,36.936l4.976,3.064l-16,168l-32.608-46.88L112,455.932h264
	l-31.28-82.672L272,319.932L306.104,271.212z"/>
<path style="fill:#FFBF41;" d="M208,199.932l-4.976-3.064l-43.632,124.184L192,367.932L208,199.932z"/>
<g>
	<path style="fill:#FFF89B;" d="M306.104,271.212L344.72,373.26L392,407.932L448.904,180.3l-64.408-22.024L306.104,271.212z"/>
	<path style="fill:#FFF89B;" d="M203.024,196.868l-100.6-60.296l-40.936,42.864l97.904,141.616L203.024,196.868z"/>
</g>
<path style="fill:#FFBF41;" d="M272,319.932l72.72,53.328l-38.616-102.048L272,319.932z"/>
<path style="fill:#5A6570;" d="M472,47.932h-28.688l24-24H472c4.418,0,8-3.582,8-8s-3.582-8-8-8H8c-4.418,0-8,3.582-8,8s3.582,8,8,8
	h36.688l-24,24H8c-4.418,0-8,3.582-8,8s3.582,8,8,8h23.944l-0.36,47.936c-0.035,4.418,3.517,8.028,7.936,8.064
	c0.003,0,0.006,0,0.008,0h0.056c4.393,0,7.965-3.543,8-7.936l0.36-48.064H232v32c0,4.418,3.582,8,8,8s8-3.582,8-8v-32h192v56
	c0,4.418,3.582,8,8,8s8-3.582,8-8v-56h16c4.418,0,8-3.582,8-8S476.418,47.932,472,47.932z M203.312,47.932L224,27.244l20.688,20.688
	H203.312z M43.312,47.932L64,27.244l20.688,20.688H43.312z M164.688,47.932h-41.376L144,27.244L164.688,47.932z M163.312,23.932
	h41.376L184,44.62L163.312,23.932z M243.312,23.932h41.376L264,44.62L243.312,23.932z M304,27.244l20.688,20.688h-41.376L304,27.244
	z M323.312,23.932h41.376L344,44.62L323.312,23.932z M384,27.244l20.688,20.688h-41.376L384,27.244z M424,44.62l-20.688-20.688
	h41.376L424,44.62z M124.688,23.932L104,44.62L83.312,23.932H124.688z"/>
<g>
	<path style="fill:#364E5E;" d="M280,159.932v-45.144c0-14.832-12.024-26.856-26.856-26.856h-26.288
		c-14.832,0-26.856,12.024-26.856,26.856l0,0v45.144H280z"/>
	<path style="fill:#364E5E;" d="M453.824,105.892l-24.872-8.504c-14.029-4.8-29.293,2.682-34.093,16.712
		c-0.001,0.003-0.002,0.005-0.003,0.008L380.24,156.82l4.256,1.456l64.408,22.024l7.032,2.4l14.608-42.712
		c4.8-14.029-2.682-29.293-16.712-34.093C453.829,105.894,453.827,105.893,453.824,105.892L453.824,105.892z"/>
	<path style="fill:#364E5E;" d="M79.352,95.364c-10.728-10.241-27.726-9.847-37.968,0.88L23.2,115.252
		c-10.241,10.728-9.847,27.726,0.88,37.968l32.64,31.2l4.744-4.96l40.936-42.888l9.6-10.024L79.352,95.364z"/>
</g>
<g>
</g>
<g>
</g>
<g>
</g>
<g>
</g>
<g>
</g>
<g>
</g>
<g>
</g>
<g>
</g>
<g>
</g>
<g>
</g>
<g>
</g>
<g>
</g>
<g>
</g>
<g>
</g>
<g>
</g>
</svg>
