<svg id="Capa_1" enable-background="new 0 0 512.001 512.001" height="512" viewBox="0 0 512.001 512.001" width="512" xmlns="http://www.w3.org/2000/svg"><g><g><path d="m189.307 280.179-21.211-21.211c-5.859-5.859-5.859-15.352 0-21.211s15.352-5.859 21.211 0l21.211 21.211c5.859 5.859 5.859 15.352 0 21.211-5.859 5.86-15.351 5.86-21.211 0z" fill="#ffe14d"/></g><g><path d="m146.886 322.601-21.211-21.211c-5.859-5.859-5.859-15.352 0-21.211s15.352-5.859 21.211 0l21.211 21.211c5.859 5.859 5.859 15.352 0 21.211-5.86 5.86-15.352 5.86-21.211 0z" fill="#ffe14d"/></g><g><path d="m104.464 365.023-21.211-21.211c-5.859-5.859-5.859-15.352 0-21.211s15.352-5.859 21.211 0l21.211 21.211c5.859 5.859 5.859 15.352 0 21.211-5.86 5.859-15.352 5.86-21.211 0z" fill="#ffe14d"/></g><g><path d="m295.362 386.249-63.633-63.647c-5.859-5.859-5.859-15.352 0-21.211s15.352-5.859 21.211 0l63.633 63.647c5.859 5.859 5.859 15.352 0 21.211s-15.351 5.859-21.211 0z" fill="#E1A42C"/></g><g><path d="m252.94 428.671-63.633-63.647c-5.859-5.859-5.859-15.352 0-21.211s15.352-5.859 21.211 0l63.633 63.647c5.859 5.859 5.859 15.352 0 21.211s-15.351 5.859-21.211 0z" fill="#E1A42C"/></g><g><path d="m210.518 471.093-63.633-63.633c-5.859-5.859-5.859-15.352 0-21.211s15.352-5.859 21.211 0l63.633 63.633c5.859 5.859 5.859 15.352 0 21.211s-15.351 5.859-21.211 0z" fill="#E1A42C"/></g><g><path d="m136.28 481.698c-23.403-23.373-23.509-61.335 0-84.844l106.055-106.069c23.379-23.408 61.465-23.408 84.844 0 23.408 23.394 23.408 61.465 0 84.858l-106.055 106.055c-23.358 23.387-61.465 23.408-84.844 0zm127.266-169.702-106.055 106.069c-11.703 11.733-11.748 30.643 0 42.422 11.719 11.689 30.703 11.689 42.422 0l106.055-106.055c11.689-11.704 11.689-30.732 0-42.437-11.715-11.684-30.68-11.712-42.422.001z" fill="#fb3"/></g><g id="Toy_Trumpet_2_"><g><g><g><path d="m316.595 258.914-212.1 212.1-51.6-3.413-12-60.189 212.1-212.098 63.078 3.077z" fill="#FFBB33"/></g></g></g></g><path d="m316.073 198.392-2.437-.119-261.44 261.628.699 7.699 51.6 3.414 212.1-212.1z" fill="#E1A42C"/><path d="m104.495 471.014-36.599 36.487c-2.701 2.999-6.599 4.501-10.499 4.501s-7.8-1.501-10.501-4.501l-42.3-42.3c-3.001-2.701-4.501-6.601-4.501-10.501s1.5-7.8 4.501-10.499l36.299-36.789z" fill="#ffe14d"/><path d="m510.695 190.511c-2.4 5.7-7.8 9.3-13.8 9.3-1.2 0-121.8.9-180.3 59.1l-63.6-63.6c58.2-58.5 59.1-179.1 59.1-180.3 0-6 3.6-11.4 9.3-13.8s12-1.2 16.2 3.3l84.9 84.9 84.9 84.9c4.5 4.2 5.7 10.5 3.3 16.2z" fill="#ffe14d"/><g fill="#fb3"><path d="m46.895 507.501c2.701 2.999 6.601 4.501 10.501 4.501s7.798-1.501 10.499-4.501l36.599-36.487-31.8-31.802-46.95 47.138z"/><path d="m510.695 190.511c-2.4 5.7-7.8 9.3-13.8 9.3-1.2 0-121.8.9-180.3 59.1l-31.8-31.8 137.7-137.7 84.9 84.9c4.5 4.2 5.7 10.5 3.3 16.2z"/></g></g></svg>