<?xml version="1.0" encoding="iso-8859-1"?>
<!-- Generator: Adobe Illustrator 19.0.0, SVG Export Plug-In . SVG Version: 6.00 Build 0)  -->
<svg version="1.1" id="Capa_1" xmlns="http://www.w3.org/2000/svg" xmlns:xlink="http://www.w3.org/1999/xlink" x="0px" y="0px"
	 viewBox="0 0 512 512" style="enable-background:new 0 0 512 512;" xml:space="preserve">
<path style="fill:#B36144;" d="M351.473,307.676c-8.309,26.625-30.295,47.982-65.369,63.479l-7.239,3.199l-6.719-4.169
	c-3.139-1.89-14.008-6.969-21.716-4.979c-2.14,0.55-4.939,1.79-7.649,6.509c-9.948,17.287,8.119,35.444,8.898,36.204l6.839,6.599
	l-3.099,8.938c-1.01,2.979-25.276,73.017-82.356,86.365c-6.209,1.45-12.518,2.18-18.917,2.18c-28.575,0-58.95-14.477-90.654-43.242
	c-3.439-3.109-6.889-6.389-10.358-9.858c-0.17-0.16-0.33-0.32-0.5-0.49c-3.639-3.639-7.089-7.259-10.348-10.868
	C8.013,409.628-5.505,373.384,2.084,339.62c12.888-57.41,82.296-82.855,85.245-83.905l9.128-3.269l6.729,6.979
	c0.7,0.71,18.847,18.787,36.154,8.838c4.729-2.73,5.969-5.559,6.509-7.719c2-7.939-3.519-19.267-4.999-21.646l-4.159-6.729
	l3.199-7.229c15.487-35.074,36.844-57.07,63.479-65.369c33.444-10.438,66.618,3.409,88.564,16.867l-7.849,12.788l19.367,19.357
	l18.367,18.367l12.788-7.839C348.053,241.048,361.911,274.222,351.473,307.676z"/>
<path style="fill:#8D4D36;" d="M351.473,307.676c-8.309,26.625-30.295,47.982-65.369,63.479l-7.239,3.199l-6.719-4.169
	c-3.139-1.89-14.008-6.969-21.716-4.979c-2.14,0.55-4.939,1.79-7.649,6.509c-9.948,17.287,8.119,35.444,8.898,36.204l6.839,6.599
	l-3.099,8.938c-1.01,2.979-25.276,73.017-82.356,86.365c-6.209,1.45-12.518,2.18-18.917,2.18c-28.575,0-58.95-14.477-90.654-43.242
	c-3.439-3.109-6.889-6.389-10.358-9.858l250.316-250.316l18.367,18.367l12.788-7.839
	C348.053,241.048,361.911,274.222,351.473,307.676z"/>
<path style="fill:#57555C;" d="M175.314,356.937l11.488,11.488l-21.206,21.216l-11.488-11.498l-90.614,90.614
	c-3.439-3.109-6.889-6.389-10.358-9.858c-0.17-0.16-0.33-0.32-0.5-0.49c-3.639-3.639-7.089-7.259-10.348-10.868l90.604-90.604
	l-11.488-11.488l21.206-21.206l11.498,11.488l78.986-78.996l11.108,11.098l10.108,10.108L175.314,356.937z"/>
<path style="fill:#2A2A2C;" d="M254.31,277.941l-78.996,78.996l11.488,11.488l-21.206,21.216l-11.488-11.498l-90.614,90.614
	c-3.439-3.109-6.889-6.389-10.358-9.858l191.066-191.066L254.31,277.941z"/>
<polygon style="fill:#F5C28E;" points="511.964,44.192 458.624,98.413 444.266,113.01 267.147,293.058 242.862,269.173
	218.107,244.817 397.594,68.248 412.672,53.411 466.972,0 489.708,22.326 "/>
<polygon style="fill:#B36144;" points="511.964,44.192 458.624,98.413 444.266,113.01 421.17,90.864 397.594,68.248 412.672,53.411
	466.972,0 489.708,22.326 "/>
<polygon style="fill:#CFA478;" points="511.964,44.192 458.624,98.413 444.266,113.01 267.147,293.058 242.862,269.173
	489.708,22.326 "/>
<polygon style="fill:#8D4D36;" points="511.964,44.192 458.624,98.413 444.266,113.01 421.17,90.864 489.708,22.326 "/>
<g>
</g>
<g>
</g>
<g>
</g>
<g>
</g>
<g>
</g>
<g>
</g>
<g>
</g>
<g>
</g>
<g>
</g>
<g>
</g>
<g>
</g>
<g>
</g>
<g>
</g>
<g>
</g>
<g>
</g>
</svg>
