<?xml version="1.0" encoding="iso-8859-1"?>
<!-- Generator: Adobe Illustrator 19.0.0, SVG Export Plug-In . SVG Version: 6.00 Build 0)  -->
<svg version="1.1" id="Capa_1" xmlns="http://www.w3.org/2000/svg" xmlns:xlink="http://www.w3.org/1999/xlink" x="0px" y="0px"
	 viewBox="0 0 512 512" style="enable-background:new 0 0 512 512;" xml:space="preserve">
<path style="fill:#596775;" d="M384.377,236.89L83.088,504.212c-12.232,10.853-30.801,10.299-42.365-1.264L9.052,471.277
	c-11.563-11.563-12.117-30.133-1.264-42.365l267.322-301.289L384.377,236.89z"/>
<path style="fill:#4D5967;" d="M367.957,220.471L71.955,483.101c-1.45,1.287-3.108,2.352-4.951,2.951
	c-4.944,1.607-10.156,0.239-13.635-3.241l-27.926-27.925c-6.877-6.876-16.995-8.514-25.432-4.943
	c0.131,7.753,3.158,15.45,9.041,21.333l31.671,31.671c11.563,11.563,30.133,12.117,42.365,1.264L384.376,236.89L367.957,220.471z"/>
<path style="fill:#E9E3D5;" d="M512,122.849C512,55.001,456.998,0,389.15,0S266.301,55.001,266.301,122.849
	c0,4.674,0.27,9.285,0.779,13.823l108.247,108.247c4.539,0.508,9.149,0.779,13.823,0.779C456.998,245.698,512,190.697,512,122.849z"
	/>
<path style="fill:#D3CDBF;" d="M512,122.849c0-47.818-27.321-89.252-67.205-109.549c8.503,16.706,13.3,35.614,13.3,55.644
	c0,67.848-55.001,122.849-122.849,122.849c-4.675,0-9.286-0.272-13.825-0.781l53.908,53.907c4.538,0.508,9.148,0.778,13.822,0.778
	C456.998,245.698,512,190.697,512,122.849z"/>
<path style="fill:#B6B0A2;" d="M494.198,191.502L320.501,17.807c-3.018-3.017-7.91-3.017-10.927,0L287.721,39.66
	c-3.015,3.015-3.016,7.91,0,10.926l173.696,173.696c3.018,3.017,7.91,3.017,10.927,0l21.853-21.853
	C497.212,199.414,497.214,194.519,494.198,191.502z"/>
<path style="fill:#A19B8D;" d="M320.501,17.807c-3.018-3.017-7.91-3.017-10.927,0l-10.926,10.926l151.844,151.843
	c9.052,9.052,9.052,23.728,0,32.78l0,0l10.926,10.926c3.018,3.017,7.91,3.017,10.927,0l21.853-21.853
	c3.017-3.017,3.017-7.91,0-10.926L320.501,17.807z"/>
<path style="fill:#35404A;" d="M235.552,299.626c-5.932,0-11.865-2.263-16.39-6.789c-9.051-9.052-9.051-23.728,0-32.779
	l40.893-40.893c9.052-9.052,23.728-9.052,32.78,0c9.051,9.052,9.051,23.728,0,32.779l-40.893,40.893
	C247.417,297.363,241.484,299.626,235.552,299.626z"/>
<path style="fill:#4D5967;" d="M375.288,252.608c-1.977,0-3.955-0.754-5.464-2.263L261.655,142.175
	c-3.017-3.017-3.017-7.91,0-10.926c3.018-3.017,7.91-3.017,10.927,0l108.169,108.169c3.017,3.017,3.017,7.91,0,10.926
	C379.243,251.852,377.265,252.608,375.288,252.608z"/>
<g>
</g>
<g>
</g>
<g>
</g>
<g>
</g>
<g>
</g>
<g>
</g>
<g>
</g>
<g>
</g>
<g>
</g>
<g>
</g>
<g>
</g>
<g>
</g>
<g>
</g>
<g>
</g>
<g>
</g>
</svg>
