<svg id="Layer_1" height="512" viewBox="0 0 512 512" width="512" xmlns="http://www.w3.org/2000/svg" data-name="Layer 1">
    <path d="m473.78 323.69c-31.66-34.02-55.83-15.23-75.77-35.17-15.25-15.24-18.21-47.44-42.89-72.12-13.29-13.29-33.52-18.02-41.33-10.2-5.15 5.14-7.97 21.17 16.85 46.61 13.93 14.28-.26 31.61-16.86 30.13l-.39.4-57.57-9.54c1.48 16.6-16.84 31.79-31.12 17.86-25.45-24.82-41.48-22-46.62-16.85-7.82 7.81-3.08 28.05 10.2 41.33 24.68 24.68 73.66 44.42 88.9 59.66 19.94 19.94 17.92 60.89 51.94 92.55 47.81 44.47 93.51 23.56 135.11-18.04 39.09-39.09 54.03-78.81 9.55-126.62z" fill="#59DEC3"/>
    <path d="m351.117 455.35c-34.02-31.66-32-72.61-51.94-92.55-15.24-15.24-64.22-34.98-88.9-59.66-8.972-8.972-14.038-21.116-13.975-30.462-9.224-2.832-15.385-.71-18.222 2.132-7.82 7.81-3.08 28.05 10.2 41.33 24.68 24.68 73.66 44.42 88.9 59.66 19.94 19.94 17.92 60.89 51.94 92.55 38.055 35.4 74.772 29.37 109.15 4.46-27.888 12.608-57.104 10.49-87.153-17.46z" fill="#44AB96"/>
    <path d="m406.71 373.66-27.62 27.62-14.17-14.63 27.16-27.16z" fill="#6d7486"/>
    <path d="m116.75 88.85-18.48 18.46.01.01 257.15 265.34 26.66-26.66z" fill="#68574E"/>
    <path d="m369.812 381.996h72.606v37.378h-72.606z" fill="#555b6b" transform="matrix(.707 -.707 .707 .707 -164.379 404.524)"/>
    <g fill="#4a5160">
        <path d="m66.191 118.405h24.023v12h-24.023z" transform="matrix(.707 -.707 .707 .707 -65.063 91.732)"/>
        <path d="m47.734 92.101h25.101v12h-25.101z" transform="matrix(.707 -.707 .707 .707 -51.711 71.36)"/>
        <path d="m30.356 65.796h24.022v12h-24.022z" transform="matrix(.707 -.707 .707 .707 -38.359 50.986)"/>
        <path d="m12.819 39.111h24.023v12h-24.023z" transform="matrix(.707 -.707 .707 .707 -24.625 30.77)"/>
    </g>
    <path d="m80.051 134.755-11.437-11.436a6 6 0 1 0 -8.485 8.485l11.436 11.437a6 6 0 0 0 8.486-8.486z" fill="#555B6B"/>
    <path d="m61.752 108.832-11.437-11.432a6 6 0 1 0 -8.485 8.485l11.437 11.436a6 6 0 1 0 8.485-8.485z" fill="#555B6B"/>
    <path d="m44.216 82.146-11.437-11.436a6 6 0 1 0 -8.486 8.485l11.437 11.437a6 6 0 1 0 8.486-8.486z" fill="#555B6B"/>
    <path d="m26.679 55.461-11.436-11.437a6 6 0 0 0 -8.486 8.485l11.437 11.437a6 6 0 0 0 8.485-8.485z" fill="#555B6B"/>
    <path d="m113.15 52.22c-10.34-5.71-27.66-6.17-37.58-12.42-11.79-7.41-31.47-22.29-37.59-20.91-8.02 1.81-13.58 11.38-13.58 11.38l66.66 98.23 39.36-39.31s1.81-26.42-17.27-36.97z" fill="#59DEC3"/>
    <path d="m401.15 336.75a9.675 9.675 0 0 1 0 13.67l-9.07 9.07-14.99-14.49 9.32-9.32a9.675 9.675 0 0 1 13.67 0z" fill="#6d7486"/>
    <path d="m392.08 359.49-27.16 27.16-14.49-14.99 26.66-26.66z" fill="#555b6b"/>
    <path d="m350.43 371.66 14.49 14.99-9.07 9.07a9.675 9.675 0 0 1 -13.67 0l-1.07-1.07a9.675 9.675 0 0 1 0-13.67z" fill="#6d7486"/>
</svg>