<?xml version="1.0" encoding="iso-8859-1"?>
<!-- Generator: Adobe Illustrator 19.0.0, SVG Export Plug-In . SVG Version: 6.00 Build 0)  -->
<svg version="1.1" id="Capa_1" xmlns="http://www.w3.org/2000/svg" xmlns:xlink="http://www.w3.org/1999/xlink" x="0px" y="0px"
	 viewBox="0 0 512 512" style="enable-background:new 0 0 512 512;" xml:space="preserve">
<path style="fill:#E95854;" d="M508,393H4c-2.209,0-4-1.791-4-4V206.556h512V389C512,391.209,510.209,393,508,393z"/>
<path style="fill:#B54441;" d="M508,393h-26.905V206.556H512V389C512,391.209,510.209,393,508,393z"/>
<rect x="30.905" y="261.15" style="fill:#EBF0F3;" width="45.02" height="131.85"/>
<rect x="75.924" y="261.15" style="fill:#D8DDDF;" width="45.02" height="131.85"/>
<rect x="120.94" y="261.15" style="fill:#EBF0F3;" width="45.02" height="131.85"/>
<rect x="165.96" y="261.15" style="fill:#D8DDDF;" width="45.02" height="131.85"/>
<rect x="210.98" y="261.15" style="fill:#EBF0F3;" width="45.02" height="131.85"/>
<rect x="256" y="261.15" style="fill:#D8DDDF;" width="45.02" height="131.85"/>
<rect x="301.02" y="261.15" style="fill:#EBF0F3;" width="45.02" height="131.85"/>
<rect x="346.04" y="261.15" style="fill:#D8DDDF;" width="45.02" height="131.85"/>
<rect x="391.06" y="261.15" style="fill:#EBF0F3;" width="45.02" height="131.85"/>
<rect x="436.08" y="261.15" style="fill:#D8DDDF;" width="45.02" height="131.85"/>
<path style="fill:#FF6B5B;" d="M512,221.768H0V123c0-2.209,1.791-4,4-4h504c2.209,0,4,1.791,4,4V221.768z"/>
<path style="fill:#E95854;" d="M512,221.768h-30.905V119H508c2.209,0,4,1.791,4,4V221.768z"/>
<g>
	<path style="fill:#6B7383;" d="M158.133,186.465v-33.203c0-2.209,1.791-4,4-4h187.734c2.209,0,4,1.791,4,4v33.203
		c0,2.209-1.791,4-4,4H162.133C159.924,190.465,158.133,188.675,158.133,186.465z"/>
	<path style="fill:#6B7383;" d="M97.352,186.465v-33.203c0-2.209,1.791-4,4-4h22.905c2.209,0,4,1.791,4,4v33.203
		c0,2.209-1.791,4-4,4h-22.905C99.143,190.465,97.352,188.675,97.352,186.465z"/>
	<path style="fill:#6B7383;" d="M383.742,186.465v-33.203c0-2.209,1.791-4,4-4h22.905c2.209,0,4,1.791,4,4v33.203
		c0,2.209-1.791,4-4,4h-22.905C385.533,190.465,383.742,188.675,383.742,186.465z"/>
</g>
<g>
	<path style="fill:#485877;" d="M85.317,333.617H66.532c-2.209,0-4-1.791-4-4V261.15h26.785v68.466
		C89.317,331.826,87.526,333.617,85.317,333.617z"/>
	<path style="fill:#485877;" d="M130.336,333.617h-18.785c-2.209,0-4-1.791-4-4V261.15h26.785v68.466
		C134.336,331.826,132.545,333.617,130.336,333.617z"/>
	<path style="fill:#485877;" d="M220.114,333.617H201.33c-2.209,0-4-1.791-4-4V261.15h26.785v68.466
		C224.114,331.826,222.323,333.617,220.114,333.617z"/>
	<path style="fill:#485877;" d="M265.392,333.617h-18.785c-2.209,0-4-1.791-4-4V261.15h26.785v68.466
		C269.392,331.826,267.602,333.617,265.392,333.617z"/>
	<path style="fill:#485877;" d="M311.028,333.266l-18.785,0.288c-2.233,0.034-4.061-1.766-4.061-4V261.15h26.785v68.116
		C314.966,331.452,313.213,333.232,311.028,333.266z"/>
	<path style="fill:#485877;" d="M400.449,333.206h-18.785c-2.209,0-4-1.791-4-4V261.15h26.785v68.055
		C404.449,331.415,402.658,333.206,400.449,333.206z"/>
</g>
<g>
	<path style="fill:#C84B48;" d="M70.198,163.606H51.655c-4.142,0-7.5-3.357-7.5-7.5s3.358-7.5,7.5-7.5h18.543
		c4.142,0,7.5,3.357,7.5,7.5S74.34,163.606,70.198,163.606z"/>
	<path style="fill:#C84B48;" d="M70.198,190.388H51.655c-4.142,0-7.5-3.357-7.5-7.5s3.358-7.5,7.5-7.5h18.543
		c4.142,0,7.5,3.357,7.5,7.5S74.34,190.388,70.198,190.388z"/>
	<path style="fill:#C84B48;" d="M460.345,163.606h-18.543c-4.142,0-7.5-3.357-7.5-7.5s3.358-7.5,7.5-7.5h18.543
		c4.142,0,7.5,3.357,7.5,7.5S464.487,163.606,460.345,163.606z"/>
	<path style="fill:#C84B48;" d="M460.345,190.388h-18.543c-4.142,0-7.5-3.357-7.5-7.5s3.358-7.5,7.5-7.5h18.543
		c4.142,0,7.5,3.357,7.5,7.5S464.487,190.388,460.345,190.388z"/>
</g>
<path style="fill:#485877;" d="M445.468,333.256h-18.785c-2.209,0-4-1.791-4-4V261.15h26.785v68.105
	C449.468,331.465,447.677,333.256,445.468,333.256z"/>
<g>
</g>
<g>
</g>
<g>
</g>
<g>
</g>
<g>
</g>
<g>
</g>
<g>
</g>
<g>
</g>
<g>
</g>
<g>
</g>
<g>
</g>
<g>
</g>
<g>
</g>
<g>
</g>
<g>
</g>
</svg>
