<svg width="1760" height="1760" xmlns="http://www.w3.org/2000/svg" xmlns:xlink="http://www.w3.org/1999/xlink"
     overflow="hidden" viewBox="0 0 1760 1760">
    <defs>
        <clipPath id="clip0o">
            <rect x="203" y="357" width="1760" height="1760"/>
        </clipPath>
        <clipPath id="clip1o">
            <rect x="621" y="775" width="924" height="925"/>
        </clipPath>
        <clipPath id="clip2o">
            <rect x="621" y="775" width="924" height="925"/>
        </clipPath>
        <clipPath id="clip3o">
            <rect x="621" y="775" width="924" height="925"/>
        </clipPath>
    </defs>
    <g clip-path="url(#clip0o)" transform="translate(-203 -357)">
        <path d="M1831.19 660.445 334.811 660.445C262.012 660.445 203 719.457 203 792.256L203 1681.74C203 1754.54 262.012 1813.55 334.811 1813.55L1831.19 1813.55C1903.99 1813.55 1963 1754.54 1963 1681.74L1963 792.256C1963 719.457 1903.99 660.445 1831.19 660.445Z"
              fill="#F5F5F5"/>
        <g clip-path="url(#clip1o)">
            <g clip-path="url(#clip2o)">
                <g clip-path="url(#clip3o)">
                    <path d="M495.227 552.161C492.182 548.488 487.648 546.37 482.877 546.37L288.47 546.37C283.699 546.37 279.164 548.488 276.12 552.161 273.06 555.834 271.803 560.667 272.667 565.358 295.768 690.495 340.132 771.347 385.673 771.347 431.214 771.347 475.579 690.495 498.679 565.359 499.542 560.667 498.287 555.834 495.227 552.161Z"
                          fill="#7F7F7F" transform="matrix(1 0 0 1.00108 697.327 851.408)"/>
                    <path d="M753.017 268.289C750.898 261.634 744.716 257.115 737.716 257.115L556.76 257.115C552.225 257.115 547.894 259.029 544.849 262.402 541.79 265.777 540.315 270.28 540.77 274.8 544.489 311.71 546.373 349.028 546.373 385.672 546.373 422.315 544.489 459.634 540.77 496.544 540.315 501.063 541.79 505.568 544.849 508.941 547.894 512.316 552.225 514.229 556.76 514.229L737.718 514.229C744.717 514.229 750.9 509.71 753.018 503.055 765.179 464.97 771.347 425.487 771.347 385.673 771.347 345.86 765.179 306.377 753.017 268.289Z"
                          fill="#7F7F7F" transform="matrix(1 0 0 1.00108 697.327 851.408)"/>
                    <path d="M532.247 211.575C533.55 219.311 540.252 224.977 548.098 224.977L710.302 224.977C715.966 224.977 721.224 221.979 724.127 217.115 727.015 212.233 727.125 206.192 724.411 201.218 676.168 112.817 593.294 45.4793 497 16.4785 490.801 14.5637 483.975 16.6819 479.848 21.783 475.752 26.8992 475.156 33.9769 478.342 39.6882 501.755 81.6513 520.398 141.081 532.247 211.575Z"
                          fill="#7F7F7F" transform="matrix(1 0 0 1.00108 697.327 851.408)"/>
                    <path d="M492.214 257.116 279.133 257.116C270.925 257.116 264.036 263.299 263.157 271.46 259.156 308.558 257.116 346.99 257.116 385.675 257.116 424.36 259.156 462.791 263.157 499.89 264.036 508.051 270.925 514.234 279.133 514.234L492.214 514.234C500.422 514.234 507.311 508.051 508.189 499.89 512.191 462.791 514.231 424.36 514.231 385.675 514.231 346.99 512.191 308.558 508.189 271.46 507.311 263.299 500.422 257.116 492.214 257.116Z"
                          fill="#7F7F7F" transform="matrix(1 0 0 1.00108 697.327 851.408)"/>
                    <path d="M61.0464 224.976 223.251 224.976C231.097 224.976 237.798 219.311 239.101 211.573 250.95 141.08 269.593 81.6498 293.006 39.6867 296.193 33.9739 295.596 26.8962 291.5 21.7815 287.388 16.6969 280.592 14.5471 274.348 16.477 178.055 45.4793 95.1785 112.817 46.9377 201.218 44.2229 206.192 44.3328 212.235 47.2209 217.115 50.124 221.979 55.3803 224.976 61.0464 224.976Z"
                          fill="#7F7F7F" transform="matrix(1 0 0 1.00108 697.327 851.408)"/>
                    <path d="M226.499 508.943C229.559 505.568 231.033 501.065 230.578 496.545 226.859 459.635 224.976 422.317 224.976 385.673 224.976 349.03 226.859 311.711 230.578 274.801 231.033 270.282 229.559 265.777 226.499 262.404 223.454 259.029 219.123 257.116 214.588 257.116L33.6304 257.116C26.631 257.116 20.4482 261.636 18.33 268.29 6.16776 306.377 0 345.86 0 385.673 0 425.487 6.16776 464.97 18.33 503.058 20.4482 509.713 26.631 514.232 33.6304 514.232L214.588 514.232C219.123 514.231 223.454 512.317 226.499 508.943Z"
                          fill="#7F7F7F" transform="matrix(1 0 0 1.00108 697.327 851.408)"/>
                    <path d="M239.099 559.773C237.796 552.037 231.095 546.371 223.249 546.371L61.0464 546.371C55.3818 546.371 50.124 549.369 47.2209 554.234 44.3328 559.115 44.2229 565.156 46.9377 570.131 95.1785 658.53 178.053 725.869 274.346 754.87 275.868 755.341 277.423 755.56 278.976 755.56 283.762 755.56 288.392 753.41 291.5 749.565 295.596 744.449 296.193 737.371 293.006 731.66 269.592 689.695 250.948 630.266 239.099 559.773Z"
                          fill="#7F7F7F" transform="matrix(1 0 0 1.00108 697.327 851.408)"/>
                    <path d="M710.3 546.371 548.098 546.371C540.252 546.371 533.55 552.036 532.247 559.773 520.398 630.267 501.755 689.697 478.342 731.66 475.156 737.373 475.752 744.451 479.848 749.565 482.956 753.41 487.585 755.56 492.372 755.56 493.91 755.56 495.48 755.34 497.002 754.87 593.295 725.869 676.17 658.53 724.411 570.131 727.125 565.156 727.015 559.113 724.127 554.234 721.223 549.368 715.966 546.371 710.3 546.371Z"
                          fill="#7F7F7F" transform="matrix(1 0 0 1.00108 697.327 851.408)"/>
                    <path d="M276.12 219.186C279.164 222.859 283.699 224.977 288.47 224.977L482.877 224.977C487.648 224.977 492.182 222.859 495.227 219.186 498.287 215.513 499.543 210.68 498.68 205.989 475.579 80.8513 431.214 0 385.673 0 340.132 0 295.768 80.8513 272.668 205.987 271.805 210.68 273.06 215.513 276.12 219.186Z"
                          fill="#7F7F7F" transform="matrix(1 0 0 1.00108 697.327 851.408)"/>
                </g>
            </g>
        </g>
    </g>
</svg>