<svg width="1760" height="1760" xmlns="http://www.w3.org/2000/svg"
     xmlns:xlink="http://www.w3.org/1999/xlink" overflow="hidden"
>
    <defs>
        <clipPath id="clip0">
            <rect x="1320" y="358" width="1760" height="1760"/>
        </clipPath>
    </defs>
    <g clip-path="url(#clip0)" transform="translate(-1320 -358)">
        <path d="M2948.19 661.445 1451.81 661.445C1379.01 661.445 1320 720.457 1320 793.256L1320 1682.74C1320 1755.54 1379.01 1814.55 1451.81 1814.55L2948.19 1814.55C3020.98 1814.55 3080 1755.54 3080 1682.74L3080 793.256C3080 720.457 3020.99 661.445 2948.19 661.445Z" fill="#F5F5F5"/><path d="M2162.29 1484.93C2178.07 1484.93 2191.26 1490.24 2201.88 1500.86 2212.5 1511.48 2217.81 1524.68 2217.81 1540.47 2217.81 1556.25 2212.5 1569.45 2201.88 1580.07 2191.26 1590.69 2178.07 1596 2162.29 1596 2146.51 1596 2133.32 1590.69 2122.7 1580.07 2112.08 1569.45 2106.77 1556.25 2106.77 1540.47 2106.77 1524.68 2112.08 1511.48 2122.7 1500.86 2133.32 1490.24 2146.51 1484.93 2162.29 1484.93ZM2198.7 905C2223.57 905 2246.94 908.49 2268.78 915.47 2290.62 922.45 2309.59 933.071 2325.67 947.334 2341.74 961.597 2354.49 979.198 2363.89 1000.14 2373.3 1021.08 2378 1045.51 2378 1073.43 2378 1092.85 2376.03 1110.45 2372.08 1126.23 2368.14 1142.01 2361.92 1156.88 2353.43 1170.84 2344.93 1184.8 2334.31 1198 2321.57 1210.44 2308.83 1222.88 2293.96 1235.78 2276.97 1249.13 2263.62 1259.45 2252.09 1268.86 2242.38 1277.36 2232.68 1285.85 2224.64 1294.2 2218.27 1302.39 2211.89 1310.59 2207.04 1319.39 2203.7 1328.8 2200.37 1338.2 2198.7 1348.67 2198.7 1360.2L2198.7 1403.9C2198.7 1426.97 2185.35 1438.5 2158.65 1438.5 2146.51 1438.5 2137.26 1435.16 2130.89 1428.48 2124.52 1421.81 2121.33 1413.61 2121.33 1403.9L2121.33 1352.92C2121.33 1335.32 2123.61 1320.15 2128.16 1307.4 2132.71 1294.66 2139.38 1282.97 2148.18 1272.35 2156.98 1261.73 2167.75 1251.26 2180.49 1240.94 2193.24 1230.62 2207.8 1219.09 2224.18 1206.35 2235.71 1197.24 2246.18 1188.44 2255.58 1179.94 2264.99 1171.45 2273.03 1162.34 2279.7 1152.63 2286.38 1142.92 2291.53 1132 2295.17 1119.86 2298.82 1107.72 2300.64 1093.76 2300.64 1077.98 2300.64 1042.78 2290.47 1017.13 2270.14 1001.05 2249.82 984.964 2224.48 977.226 2194.15 977.833 2171.09 978.44 2151.37 982.233 2134.98 989.213 2118.6 996.193 2102.22 1007.57 2085.84 1023.35 2076.73 1032.46 2066.27 1038.37 2054.43 1041.11 2042.6 1043.84 2032.44 1040.35 2023.94 1030.64 2016.66 1022.14 2014.39 1012.43 2017.12 1001.5 2019.85 990.579 2025.46 980.868 2033.96 972.37 2053.98 951.128 2077.34 934.588 2104.04 922.753 2130.74 910.918 2162.29 905 2198.7 905Z" fill="#595959" fill-rule="evenodd"/>
    </g>
</svg>