<svg xmlns="http://www.w3.org/2000/svg"
     viewBox="0 0 1336 402"
>
    <defs>
        <style>
            .cls-1{fill:none;stroke-linecap:round;stroke-linejoin:round;stroke-width:9px;}.cls-1,.cls-3{stroke:#000;}.cls-2{isolation:isolate;}.cls-3{stroke-miterlimit:10;}
        </style>
    </defs>
    <g>
        <path class="cls-1" d="M122.51,359.53H99.3"/>
        <g>
            <path class="cls-1" d="M122.51,330V171.78"/>
            <line class="cls-1" x1="194.86" y1="192.14" x2="152.9" y2="192.14"/>
            <line class="cls-1" x1="194.86" y1="192.14" x2="152.9" y2="192.14"/>
            <path class="cls-1" d="M122.51,275.61H68"/>
            <path class="cls-1" d="M122.51,359.53V42.47l35.23,62.2L68,275.61h83"/>
            <line class="cls-1" x1="194.86" y1="192.14" x2="151.05" y2="275.61"/>
            <line class="cls-1" x1="134.11" y1="227.91" x2="152.9" y2="192.14"/>
        </g>
    </g>
    <g class="cls-2">
        <g class="cls-2">
            <path class="cls-3" d="M305.91,231.13c0-3.46,1.2-5.27,5.27-5.27s5.43,1.81,5.43,5.27v3.17c0,13.71,6.48,20.5,17.33,20.5,10.55,0,17.64-6.79,17.64-19.6,0-7.69-2.11-12.81-7.84-18.09l-25.47-23.36c-8.59-7.84-11.16-13.41-11.16-26.37,0-17,10.25-27.29,27.28-27.29,17.19,0,27.44,10.7,27.44,27.59v4.52c0,3.47-1.21,5.12-5.43,5.12-4.07,0-5.28-1.65-5.28-5.12v-3c0-12.36-6.17-19.14-16.73-19.14-10.4,0-16.58,6.48-16.58,18.54,0,8.14,2.11,12.06,8.45,18.09l25,22.91c8.29,7.53,11,14.32,11,26.53,0,17.33-10.4,28.63-28.34,28.63-17.18,0-28-10.7-28-28.94Z"/>
            <path class="cls-3" d="M430.26,148.38l-24.57,61.35v49c0,3.62-1.21,5.28-5.43,5.28-4.07,0-5.27-1.66-5.27-5.28V210.18l-24.57-61.8c-1.36-3.31-.6-5.42,3-6.78s5.58-.45,6.94,2.86l20,51.7,19.9-51.7c1.36-3.31,3.16-4.22,6.93-2.86S431.61,145.07,430.26,148.38Z"/>
            <path class="cls-3" d="M443.22,258.41V145.52c0-3.17,1.66-4.67,5.27-4.67s5,1.65,6.34,5.12l26.22,69c1.51,4.38,6.18,15.83,8.74,24.57h.15c-.75-10.85-1.05-22.76-1.05-33.16v-60c0-3.76,1.51-5.42,5.12-5.42s5.13,1.66,5.13,5.42V259.47q0,4.51-5.43,4.52c-3.62,0-4.82-1.51-6.18-5L460.1,187.57c-1.66-4.22-5-13.56-7.54-22.31h-.15c.61,11,1.06,16.89,1.06,27.14v66c0,3.77-1.51,5.58-5.13,5.58S443.22,262.18,443.22,258.41Z"/>
            <path class="cls-3" d="M563.35,168.73c0-12.06-6.78-18.54-17.79-18.54-11.3,0-17.93,6.48-17.93,19.45V235.2c0,13.12,6.93,19.45,17.93,19.45,11.31,0,17.79-6,17.79-18.24v-4.07c0-3.62,1.2-5.13,5.27-5.13s5.43,1.51,5.43,5.13v5.42c0,16.13-9.8,27-28.49,27-17.33,0-28.64-10.24-28.64-27.88V168c0-17.79,11.16-27.89,28.64-27.89,17.79,0,28.49,10.7,28.49,27v5.43c0,3.62-1.21,5.12-5.43,5.12s-5.27-1.5-5.27-5.12Z"/>
            <path class="cls-3" d="M647.15,256.76c1.36,3.31.75,5.27-2.71,6.63-3.62,1.35-5.88.6-7.09-2.87L616.86,207a23.51,23.51,0,0,1-3.32.15H601.33v51.54c0,3.62-1.21,5.28-5.43,5.28-4.07,0-5.27-1.66-5.27-5.28V146c0-3.77,1.36-5.12,5-5.12h17.94c19.44,0,30.29,9.79,30.29,26.53v13.26c0,12.21-5.87,20.8-16.58,24.42Zm-45.82-59.54h12.21c12.66,0,19.59-6.33,19.59-18.54v-9.35c0-12.21-6.93-18.54-19.59-18.54H601.33Z"/>
            <path class="cls-3" d="M660,236.86V168c0-16.88,11.46-27.89,29.24-27.89,17.94,0,29.4,11,29.4,27.89v68.88c0,16.73-11.61,27.88-29.4,27.88C671.57,264.74,660,253.59,660,236.86Zm47.93-1.66V169.64c0-12.06-7.23-19.45-18.69-19.45-11.3,0-18.53,7.39-18.53,19.45V235.2c0,12.06,7.38,19.45,18.53,19.45C700.66,254.65,707.89,247.26,707.89,235.2Z"/>
            <path class="cls-3" d="M733.67,236.86V168c0-16.88,11.45-27.89,29.24-27.89,17.94,0,29.39,11,29.39,27.89v68.88c0,16.73-11.61,27.88-29.39,27.88S733.67,253.59,733.67,236.86Zm47.93-1.66V169.64c0-12.06-7.24-19.45-18.69-19.45s-18.54,7.39-18.54,19.45V235.2c0,12.06,7.38,19.45,18.54,19.45C774.36,254.65,781.6,247.26,781.6,235.2Z"/>
            <path class="cls-3" d="M809.93,258.41V146.88c0-4.38,2-6,5.88-6s6,1.5,7.39,6L837.37,195c3.16,11.15,12.51,43.56,14.47,51.85,1.81-8.29,11.15-40.7,14.47-51.85l14-48.08c1.36-4.53,3.47-6,7.54-6,3.92,0,5.88,1.65,5.88,6V258.41c0,3.77-1.51,5.58-5.13,5.58s-5.12-1.81-5.12-5.58V198.88c0-11.46.3-24,1.21-33.31h-.61c-1.66,7.08-5.88,22-7.53,28l-18.54,65c-1.06,3.77-2.42,5.43-6.18,5.43s-5.28-1.66-6.33-5.43l-18.39-65c-1.81-6-5.88-20.95-7.69-28h-.6c1,9.34,1.35,21.85,1.35,33.31v59.53c0,3.77-1.5,5.58-5.12,5.58S809.93,262.18,809.93,258.41Z"/>
            <path class="cls-3" d="M987.94,256.91c1.21,3.31.45,5.12-3.16,6.48s-5.58.3-6.79-3l-20.5-55.77H944.38v54.11c0,3.62-1.36,5.28-5.27,5.28-4.07,0-5.43-1.66-5.43-5.28V146.12c0-3.62,1.36-5.27,5.43-5.27,3.91,0,5.27,1.65,5.27,5.27v48.39h13.11l17.94-50c1.21-3.46,3.47-4.37,6.93-3.16s4.38,3,3,6.63l-18.54,51.85Z"/>
            <path class="cls-3" d="M998,236.86V168c0-16.88,11.46-27.89,29.24-27.89,17.94,0,29.39,11,29.39,27.89v68.88c0,16.73-11.6,27.88-29.39,27.88C1009.65,264.74,998,253.59,998,236.86ZM1046,235.2V169.64c0-12.06-7.23-19.45-18.69-19.45-11.3,0-18.54,7.39-18.54,19.45V235.2c0,12.06,7.39,19.45,18.54,19.45C1038.74,254.65,1046,247.26,1046,235.2Z"/>
            <path class="cls-3" d="M1131.58,256.76c1.36,3.31.76,5.27-2.71,6.63s-5.88.6-7.08-2.87l-20.5-53.5a23.51,23.51,0,0,1-3.32.15h-12.21v51.54c0,3.62-1.2,5.28-5.42,5.28-4.07,0-5.28-1.66-5.28-5.28V146c0-3.77,1.36-5.12,5-5.12H1098c19.45,0,30.3,9.79,30.3,26.53v13.26c0,12.21-5.88,20.8-16.58,24.42Zm-45.82-59.54H1098c12.66,0,19.6-6.33,19.6-18.54v-9.35c0-12.21-6.94-18.54-19.6-18.54h-12.21Z"/>
            <path class="cls-3" d="M1152.38,264c-3.46,0-5.12-1.51-5.12-5.28V146.12c0-3.77,1.66-5.27,5.12-5.27h38.89c3.17,0,4.52,1.2,4.52,5.12s-1.35,5.13-4.52,5.13H1158v43.41h30c3.17,0,4.53,1.05,4.53,5.12s-1.36,5-4.53,5h-30v49.14h35.12c3.16,0,4.37,1.21,4.37,5.13s-1.21,5.12-4.37,5.12Z"/>
            <path class="cls-3" d="M1265.13,258.26c.75,3.62,0,5.43-3.77,6.18s-5.88-.6-6.63-4.07l-5.58-26.22h-29.69l-5.58,26.22c-.75,3.47-2.71,5-6.63,4.07-3.77-.9-4.52-2.56-3.77-6.18l25.32-113.49c.75-3.32,2.26-4.38,5.43-4.38s4.82,1.06,5.57,4.38Zm-43.41-34.21h25.17l-8.74-41.15c-1.51-6.18-2.27-10.1-3.77-18.39h-.3c-1.51,8.29-2.26,12.21-3.62,18.39Z"/>
        </g>
    </g>
</svg>