<svg width="480" height="480" viewBox="0 0 480 480" fill="none" xmlns="http://www.w3.org/2000/svg">
    <rect width="480" height="480" fill="#C7F1FE"/>
    <g clip-path="url(#clip0_128_1172)">
        <path d="M128.331 374.396C154.177 400.242 196.361 400.712 222.063 374.723C234.207 362.442 240.519 346.564 241.002 330.543C241.359 318.676 248.511 308.027 259.309 303.09C263.825 301.025 268.064 298.157 271.811 294.486C289.419 277.229 289.066 248.713 271.633 231.28L248.72 208.368C231.287 190.934 202.772 190.581 185.515 208.189C181.843 211.936 178.975 216.175 176.91 220.691C171.973 231.488 161.324 238.641 149.457 238.998C133.436 239.48 117.558 245.793 105.278 257.937C79.2878 283.638 79.7582 325.822 105.604 351.668L128.331 374.396Z"
              fill="#FAC574"/>
        <path d="M194.666 310.492C208.56 310.492 219.824 299.229 219.824 285.334C219.824 271.439 208.56 260.175 194.666 260.175C180.771 260.175 169.507 271.439 169.507 285.334C169.507 299.229 180.771 310.492 194.666 310.492Z"
              fill="#685E67"/>
        <path d="M212.457 303.124C202.633 312.949 186.7 312.949 176.875 303.124C169.634 295.883 167.73 285.33 171.164 276.345C172.388 279.552 174.292 282.558 176.875 285.147C186.7 294.972 202.633 294.972 212.457 285.147C215.047 282.558 216.951 279.552 218.175 276.345C221.602 285.33 219.698 295.883 212.457 303.124Z"
              fill="#554E55"/>
        <path d="M271.808 294.487C268.062 298.16 263.826 301.024 259.309 303.088C248.511 308.028 241.362 318.678 241 330.541C240.517 346.566 234.206 362.444 222.061 374.724C196.358 400.714 154.178 400.242 128.334 374.399L114.721 360.786C140.565 386.63 182.752 387.101 208.448 361.11C220.592 348.831 226.909 332.953 227.387 316.934C227.748 305.065 234.897 294.414 245.696 289.48C250.213 287.412 254.455 284.547 258.201 280.874C275.806 263.619 275.45 235.1 258.017 217.667L271.631 231.28C289.063 248.714 289.418 277.226 271.808 294.487Z"
              fill="#E8B66B"/>
        <path d="M237.002 262.909L346.889 148.877L331.123 133.111L217.09 242.998C215.857 244.186 215.839 246.155 217.05 247.366L232.635 262.95C233.845 264.161 235.814 264.143 237.002 262.909Z"
              fill="#C76D3D"/>
        <path d="M237.004 262.907C235.813 264.141 233.844 264.162 232.632 262.95L221.673 251.991C222.885 253.203 224.859 253.186 226.044 251.948L335.927 137.918L346.886 148.877L237.004 262.907Z"
              fill="#AA5E33"/>
        <path d="M389.421 134.629C388.25 134.629 387.077 134.182 386.183 133.288L346.711 93.8161C344.923 92.0283 344.923 89.1287 346.711 87.3409C348.5 85.553 351.398 85.553 353.187 87.3409L392.659 126.812C394.447 128.6 394.447 131.5 392.659 133.288C391.765 134.182 390.592 134.629 389.421 134.629Z"
              fill="#685E67"/>
        <path d="M377.127 144.315C375.955 144.315 374.783 143.868 373.889 142.974L337.025 106.11C335.237 104.322 335.237 101.423 337.025 99.6351C338.814 97.8466 341.713 97.8472 343.501 99.6351L380.364 136.499C382.152 138.287 382.152 141.186 380.364 142.974C379.47 143.868 378.298 144.315 377.127 144.315Z"
              fill="#685E67"/>
        <path d="M364.181 153.349C363.009 153.349 361.837 152.902 360.942 152.008L327.991 119.057C326.203 117.269 326.203 114.369 327.991 112.581C329.78 110.793 332.679 110.793 334.467 112.581L367.418 145.533C369.206 147.321 369.206 150.221 367.418 152.008C366.524 152.902 365.352 153.349 364.181 153.349Z"
              fill="#685E67"/>
        <path d="M392.659 126.813L377.307 111.461C375.159 113.63 373.013 115.801 370.858 117.963L386.183 133.287C387.077 134.181 388.249 134.628 389.421 134.628C390.592 134.628 391.765 134.181 392.659 133.287C394.446 131.5 394.446 128.601 392.659 126.813Z"
              fill="#554E55"/>
        <path d="M366.348 122.482C364.191 124.642 362.037 126.805 359.879 128.964L373.889 142.974C374.783 143.868 375.954 144.314 377.127 144.314C378.298 144.314 379.47 143.867 380.364 142.974C382.152 141.186 382.152 138.286 380.364 136.498L366.348 122.482Z"
              fill="#554E55"/>
        <path d="M355.37 133.483C353.214 135.644 351.06 137.808 348.909 139.974L360.942 152.007C361.837 152.902 363.008 153.348 364.181 153.348C365.352 153.348 366.524 152.901 367.419 152.007C369.207 150.219 369.207 147.32 367.419 145.532L355.37 133.483Z"
              fill="#554E55"/>
        <path d="M344.636 150.396L329.603 135.363C328.347 134.107 328.226 132.111 329.321 130.712L357.699 94.4521C360.383 91.0226 365.462 90.714 368.541 93.7934L386.204 111.456C389.284 114.536 388.975 119.615 385.546 122.299L349.286 150.677C347.888 151.773 345.892 151.652 344.636 150.396Z"
              fill="#FAC574"/>
        <path d="M388.871 119.696L349.285 150.678C347.887 151.773 345.895 151.652 344.641 150.396L332.431 138.187C333.686 139.442 335.682 139.567 337.08 138.472L376.667 107.49C378.324 106.187 378.476 103.724 376.987 102.235L389.192 114.441C390.684 115.934 390.533 118.397 388.871 119.696Z"
              fill="#E8B66B"/>
        <path d="M169.875 336.62C168.703 336.62 167.531 336.173 166.637 335.279L144.72 313.362C142.932 311.575 142.932 308.675 144.72 306.887C146.508 305.099 149.407 305.099 151.196 306.887L173.112 328.804C174.9 330.592 174.9 333.491 173.112 335.279C172.218 336.173 171.047 336.62 169.875 336.62Z"
              fill="#FEF0DC"/>
        <path d="M157.451 349.045C156.279 349.045 155.107 348.598 154.212 347.704L132.296 325.787C130.508 323.999 130.508 321.1 132.296 319.312C134.084 317.524 136.983 317.524 138.772 319.312L160.688 341.229C162.476 343.017 162.476 345.916 160.688 347.704C159.794 348.597 158.622 349.045 157.451 349.045Z"
              fill="#FEF0DC"/>
        <path d="M357.247 127.331C356.076 127.331 354.904 126.885 354.01 125.991C352.221 124.202 352.221 121.303 354.009 119.515L361.488 112.035C363.277 110.247 366.176 110.247 367.964 112.035C369.752 113.823 369.752 116.722 367.964 118.511L360.485 125.991C359.591 126.885 358.419 127.331 357.247 127.331Z"
              fill="#C76D3D"/>
        <path d="M283.041 218.367C281.869 218.367 280.698 217.921 279.803 217.027L262.974 200.197C261.186 198.408 261.186 195.509 262.974 193.721C264.762 191.933 267.661 191.934 269.45 193.721L286.279 210.551C288.067 212.34 288.067 215.239 286.278 217.027C285.385 217.921 284.213 218.367 283.041 218.367Z"
              fill="#8E4D29"/>
        <path d="M299.199 202.209C298.028 202.209 296.855 201.762 295.961 200.868L279.131 184.038C277.343 182.25 277.343 179.351 279.131 177.563C280.919 175.775 283.818 175.775 285.607 177.563L302.437 194.393C304.225 196.181 304.225 199.08 302.437 200.868C301.543 201.762 300.371 202.209 299.199 202.209Z"
              fill="#8E4D29"/>
        <path d="M315.357 186.051C314.185 186.051 313.013 185.604 312.119 184.71L295.29 167.881C293.502 166.093 293.502 163.193 295.29 161.405C297.079 159.617 299.978 159.617 301.765 161.405L318.595 178.235C320.383 180.023 320.383 182.923 318.595 184.71C317.701 185.604 316.528 186.051 315.357 186.051Z"
              fill="#8E4D29"/>
        <path d="M328.132 170.679C326.961 170.679 325.788 170.232 324.894 169.338L310.661 155.105C308.873 153.317 308.873 150.418 310.661 148.63C312.449 146.842 315.348 146.842 317.137 148.63L331.37 162.863C333.157 164.651 333.157 167.55 331.37 169.338C330.476 170.232 329.304 170.679 328.132 170.679Z"
              fill="#8E4D29"/>
        <path d="M267.375 235.309C266.204 235.309 265.032 234.862 264.137 233.968L246.008 215.84C244.221 214.052 244.221 211.153 246.008 209.365C247.797 207.577 250.696 207.577 252.484 209.365L270.613 227.493C272.401 229.281 272.401 232.18 270.613 233.968C269.719 234.862 268.547 235.309 267.375 235.309Z"
              fill="#8E4D29"/>
        <path d="M251.071 251.613C249.899 251.613 248.728 251.166 247.833 250.272L229.705 232.144C227.917 230.356 227.917 227.457 229.705 225.669C231.494 223.881 234.393 223.881 236.181 225.669L254.309 243.797C256.097 245.585 256.097 248.484 254.309 250.272C253.415 251.166 252.243 251.613 251.071 251.613Z"
              fill="#8E4D29"/>
    </g>
    <defs>
        <clipPath id="clip0_128_1172">
            <rect width="308" height="308" fill="white" transform="translate(86 86)"/>
        </clipPath>
    </defs>
</svg>
