<svg width="480" height="480" viewBox="0 0 480 480" fill="none" xmlns="http://www.w3.org/2000/svg">
    <rect width="480" height="480" fill="#FFE4F1"/>
    <path d="M389.515 291.364C369.233 269.57 353.749 281.607 340.975 268.833C331.206 259.07 329.309 238.442 313.499 222.631C304.985 214.117 292.025 211.087 287.022 216.097C283.722 219.39 281.916 229.659 297.816 245.956C306.74 255.104 297.65 266.206 287.015 265.258L286.765 265.515L249.885 259.403C250.833 270.037 239.097 279.768 229.948 270.845C213.644 254.944 203.375 256.751 200.082 260.05C195.073 265.053 198.109 278.02 206.617 286.527C222.427 302.338 253.805 314.984 263.568 324.747C276.342 337.521 275.048 363.754 296.842 384.037C327.471 412.525 356.747 399.13 383.397 372.48C408.439 347.438 418.01 321.992 389.515 291.364Z"
          fill="#F457B5"/>
    <path d="M310.934 375.709C289.14 355.427 290.434 329.193 277.66 316.419C267.897 306.656 236.519 294.01 220.709 278.199C214.961 272.451 211.716 264.672 211.756 258.684C205.847 256.87 201.9 258.23 200.082 260.05C195.073 265.054 198.109 278.02 206.617 286.527C222.427 302.338 253.805 314.984 263.568 324.747C276.342 337.521 275.048 363.755 296.842 384.037C321.221 406.715 344.743 402.852 366.767 386.894C348.901 394.971 330.184 393.614 310.934 375.709Z"
          fill="#DE3F9E"/>
    <path d="M346.549 323.376L328.855 341.07L319.777 331.698L337.176 314.298L346.549 323.376Z" fill="#6D7486"/>
    <path d="M160.793 140.919L148.954 152.745L148.961 152.752L313.697 322.735L330.776 305.656L160.793 140.919Z"
          fill="#68574E"/>
    <path d="M321.205 348.667L354.09 315.782L371.019 332.711L338.134 365.596L321.205 348.667Z" fill="#555B6B"/>
    <path d="M127.927 166.415L138.807 155.534L144.242 160.969L133.362 171.85L127.927 166.415Z" fill="#4A5160"/>
    <path d="M116.207 149.81L127.576 138.441L133.011 143.876L121.642 155.245L116.207 149.81Z" fill="#4A5160"/>
    <path d="M104.976 132.714L115.856 121.834L121.291 127.269L110.411 138.149L104.976 132.714Z" fill="#4A5160"/>
    <path d="M93.7449 115.62L104.625 104.74L110.06 110.175L99.1799 121.055L93.7449 115.62Z" fill="#4A5160"/>
    <path d="M137.283 170.327L129.956 163.001C129.6 162.639 129.176 162.352 128.708 162.155C128.241 161.958 127.739 161.855 127.232 161.853C126.724 161.851 126.221 161.949 125.752 162.143C125.283 162.336 124.857 162.62 124.498 162.979C124.139 163.338 123.855 163.764 123.662 164.233C123.469 164.702 123.37 165.205 123.372 165.712C123.374 166.22 123.477 166.722 123.674 167.189C123.871 167.657 124.158 168.081 124.52 168.437L131.846 175.764C132.203 176.121 132.627 176.404 133.093 176.597C133.56 176.79 134.06 176.889 134.565 176.889C135.069 176.889 135.569 176.79 136.036 176.597C136.502 176.404 136.926 176.121 137.283 175.764C137.64 175.407 137.923 174.983 138.116 174.516C138.309 174.05 138.409 173.55 138.409 173.045C138.409 172.541 138.309 172.041 138.116 171.574C137.923 171.108 137.64 170.684 137.283 170.327Z"
          fill="#555B6B"/>
    <path d="M125.56 153.721L118.233 146.397C117.877 146.035 117.453 145.748 116.986 145.551C116.518 145.354 116.016 145.251 115.509 145.249C115.001 145.247 114.499 145.345 114.029 145.539C113.56 145.732 113.134 146.016 112.775 146.375C112.416 146.734 112.132 147.16 111.939 147.629C111.746 148.098 111.647 148.601 111.649 149.108C111.651 149.616 111.754 150.118 111.951 150.585C112.148 151.053 112.436 151.477 112.797 151.833L120.124 159.159C120.48 159.521 120.904 159.808 121.372 160.005C121.839 160.202 122.341 160.305 122.848 160.307C123.356 160.309 123.859 160.211 124.328 160.017C124.797 159.824 125.223 159.54 125.582 159.181C125.941 158.822 126.225 158.396 126.418 157.927C126.612 157.458 126.71 156.955 126.708 156.448C126.706 155.94 126.603 155.438 126.406 154.971C126.209 154.503 125.922 154.079 125.56 153.723V153.721Z"
          fill="#555B6B"/>
    <path d="M114.326 136.625L106.999 129.298C106.642 128.941 106.218 128.658 105.752 128.465C105.286 128.272 104.786 128.172 104.281 128.172C103.776 128.172 103.276 128.272 102.81 128.465C102.344 128.658 101.92 128.941 101.563 129.298C101.206 129.655 100.923 130.079 100.73 130.545C100.536 131.011 100.437 131.511 100.437 132.016C100.437 132.521 100.536 133.021 100.73 133.487C100.923 133.953 101.206 134.377 101.563 134.734L108.89 142.061C109.246 142.418 109.67 142.701 110.137 142.894C110.603 143.087 111.103 143.187 111.608 143.187C112.113 143.187 112.612 143.087 113.079 142.894C113.545 142.701 113.969 142.418 114.326 142.061C114.683 141.704 114.966 141.28 115.159 140.814C115.352 140.347 115.452 139.848 115.452 139.343C115.452 138.838 115.352 138.338 115.159 137.872C114.966 137.405 114.683 136.982 114.326 136.625Z"
          fill="#555B6B"/>
    <path d="M103.091 119.529L95.765 112.203C95.0442 111.482 94.0665 111.077 93.0471 111.077C92.0276 111.077 91.0499 111.482 90.329 112.202C89.6081 112.923 89.2031 113.901 89.203 114.92C89.2029 115.94 89.6079 116.917 90.3287 117.638L97.6555 124.965C98.3783 125.676 99.3529 126.073 100.367 126.069C101.381 126.065 102.352 125.66 103.069 124.943C103.786 124.226 104.191 123.255 104.195 122.241C104.199 121.227 103.802 120.252 103.091 119.529Z"
          fill="#555B6B"/>
    <path d="M158.487 117.453C151.863 113.796 140.767 113.501 134.412 109.497C126.859 104.75 114.252 95.2174 110.331 96.1014C105.193 97.261 101.631 103.392 101.631 103.392L144.335 166.32L169.55 141.137C169.55 141.137 170.71 124.212 158.487 117.453Z"
          fill="#F457B5"/>
    <path d="M342.987 299.73C344.147 300.892 344.798 302.467 344.798 304.109C344.798 305.751 344.147 307.326 342.987 308.488L337.176 314.298L327.573 305.015L333.544 299.045C334.706 297.885 336.281 297.233 337.923 297.233C339.564 297.233 341.139 297.885 342.301 299.045L342.987 299.73Z"
          fill="#6D7486"/>
    <path d="M337.176 314.298L319.777 331.698L310.494 322.095L327.573 305.016L337.176 314.298Z" fill="#555B6B"/>
    <path d="M310.494 322.095L319.777 331.698L313.966 337.508C312.804 338.668 311.23 339.32 309.588 339.32C307.946 339.32 306.371 338.668 305.209 337.508L304.524 336.823C303.364 335.661 302.712 334.086 302.712 332.444C302.712 330.802 303.364 329.227 304.524 328.065L310.494 322.095Z"
          fill="#6D7486"/>
</svg>
