<svg width="480" height="480" viewBox="0 0 480 480" fill="none" xmlns="http://www.w3.org/2000/svg">
    <rect width="480" height="480" fill="#DFD6CE"/>
    <path d="M271.156 224.822H206.851V282.162H271.156V224.822Z" fill="#A66856"/>
    <path d="M208.955 323.318H90.8755C89.4167 323.318 88.2156 322.174 88.1445 320.717L82.3101 200.903H217.521L211.687 320.717C211.616 322.174 210.414 323.318 208.955 323.318Z"
          fill="#F3B573"/>
    <path d="M387.125 323.318H269.045C267.586 323.318 266.384 322.174 266.314 320.717L260.479 200.903H395.691L389.856 320.717C389.785 322.174 388.583 323.318 387.125 323.318Z"
          fill="#F3B573"/>
    <path d="M374.739 200.903L368.778 323.318H387.124C388.583 323.318 389.784 322.174 389.855 320.717L395.69 200.903H374.739Z"
          fill="#F5A257"/>
    <path d="M196.646 200.903L190.685 323.318H209.031C210.489 323.318 211.691 322.174 211.762 320.717L217.597 200.903H196.646Z"
          fill="#F5A257"/>
    <path d="M222.533 228.81H77.2979C75.7879 228.81 74.5636 227.586 74.5636 226.076V178.311C74.5636 176.8 75.7879 175.576 77.2979 175.576H222.534C224.044 175.576 225.268 176.8 225.268 178.311V226.076C225.267 227.586 224.044 228.81 222.533 228.81Z"
          fill="#FFDEA9"/>
    <path d="M400.702 228.81H255.467C253.957 228.81 252.733 227.586 252.733 226.076V178.311C252.733 176.8 253.957 175.576 255.467 175.576H400.703C402.213 175.576 403.437 176.8 403.437 178.311V226.076C403.436 227.586 402.212 228.81 400.702 228.81Z"
          fill="#FFDEA9"/>
    <path d="M400.702 228.81H382.31V175.576H400.702C402.212 175.576 403.436 176.8 403.436 178.311V226.076C403.436 227.586 402.212 228.81 400.702 228.81Z"
          fill="#FFBF7B"/>
    <path d="M222.533 228.81H204.141V175.576H222.533C224.043 175.576 225.267 176.8 225.267 178.311V226.076C225.267 227.586 224.044 228.81 222.533 228.81Z"
          fill="#FFBF7B"/>
    <path d="M231.608 210.753H68.2232C65.8908 210.753 64 208.862 64 206.529V196.684C64 194.352 65.8908 192.461 68.2232 192.461H231.608C233.94 192.461 235.831 194.352 235.831 196.684V206.529C235.831 208.862 233.94 210.753 231.608 210.753Z"
          fill="#735458"/>
    <path d="M409.777 210.753H246.392C244.06 210.753 242.169 208.862 242.169 206.529V196.684C242.169 194.352 244.06 192.461 246.392 192.461H409.777C412.109 192.461 414 194.352 414 196.684V206.529C414 208.862 412.109 210.753 409.777 210.753Z"
          fill="#735458"/>
    <path d="M409.775 192.461H388.648C390.982 192.461 392.874 194.351 392.874 196.682V206.531C392.874 208.862 390.982 210.753 388.648 210.753H409.775C412.109 210.753 414 208.862 414 206.531V196.682C414 194.351 412.109 192.461 409.775 192.461Z"
          fill="#5C4346"/>
    <path d="M231.606 192.461H210.479C212.813 192.461 214.704 194.351 214.704 196.682V206.531C214.704 208.862 212.813 210.753 210.479 210.753H231.606C233.939 210.753 235.831 208.862 235.831 206.531V196.682C235.831 194.351 233.939 192.461 231.606 192.461Z"
          fill="#5C4346"/>
    <path d="M176.676 335.273V210.752H194.986V335.273C194.986 340.327 190.889 344.424 185.836 344.424H185.827C180.773 344.424 176.676 340.327 176.676 335.273Z"
          fill="#E2E0DB"/>
    <path d="M104.845 335.273V210.752H123.155V335.273C123.155 340.327 119.059 344.424 114.005 344.424H113.996C108.942 344.424 104.845 340.327 104.845 335.273Z"
          fill="#E2E0DB"/>
    <path d="M354.845 335.273V210.752H373.155V335.273C373.155 340.327 369.059 344.424 364.005 344.424H363.996C358.942 344.424 354.845 340.327 354.845 335.273Z"
          fill="#E2E0DB"/>
    <path d="M283.014 335.273V210.752H301.324V335.273C301.324 340.327 297.227 344.424 292.173 344.424H292.164C287.111 344.424 283.014 340.327 283.014 335.273Z"
          fill="#E2E0DB"/>
</svg>
