<svg width="480" height="480" viewBox="0 0 480 480" fill="none" xmlns="http://www.w3.org/2000/svg">
    <rect width="480" height="480" fill="#FFDBDA"/>
    <g clip-path="url(#clip0_124_94)">
        <path d="M127.638 223.851C125.035 223.851 122.925 221.742 122.925 219.138V175.616C122.925 173.012 125.035 170.903 127.638 170.903C130.241 170.903 132.351 173.012 132.351 175.616V219.139C132.351 221.742 130.241 223.851 127.638 223.851Z"
              fill="#7D8F9E"/>
        <path d="M356.65 210.656C354.046 210.656 351.937 212.765 351.937 215.369V250.368C351.937 252.972 354.046 255.081 356.65 255.081C359.253 255.081 361.363 252.972 361.363 250.368V215.369C361.363 212.766 359.253 210.656 356.65 210.656Z"
              fill="#7D8F9E"/>
        <path d="M127.639 308.112C125.036 308.112 122.926 310.222 122.926 312.825V354.464C122.926 357.068 125.036 359.177 127.639 359.177C130.242 359.177 132.352 357.068 132.352 354.464V312.825C132.352 310.222 130.242 308.112 127.639 308.112Z"
              fill="#7D8F9E"/>
        <path d="M169.276 240.605V222.91C169.276 220.827 167.588 219.14 165.506 219.14H89.7699C87.6878 219.14 86 220.827 86 222.91V309.053C86 311.135 87.6878 312.823 89.7699 312.823H164.273L169.276 240.605Z"
              fill="#DC1C4A"/>
        <path d="M356.65 359.177C354.046 359.177 351.937 357.068 351.937 354.464V302.416C351.937 299.813 354.046 297.703 356.65 297.703C359.253 297.703 361.363 299.813 361.363 302.416V354.464C361.363 357.068 359.253 359.177 356.65 359.177Z"
              fill="#7D8F9E"/>
        <path d="M387.879 369.588C387.385 369.588 386.883 369.51 386.388 369.345L356.65 359.431L326.911 369.345C324.44 370.166 321.772 368.834 320.95 366.365C320.127 363.895 321.461 361.226 323.931 360.403L355.16 349.994C356.128 349.671 357.172 349.671 358.141 349.994L389.37 360.403C391.839 361.226 393.173 363.896 392.35 366.365C391.691 368.339 389.852 369.588 387.879 369.588Z"
              fill="#AABFCF"/>
        <path d="M317.388 302.417H394.517C396.599 302.417 398.287 300.729 398.287 298.647V254.139C398.287 252.057 396.599 250.369 394.517 250.369H312.635L317.388 302.417Z"
              fill="#DC1C4A"/>
        <path d="M394.517 250.369H381.95C384.033 250.369 385.72 252.057 385.72 254.139V298.647C385.72 300.729 384.033 302.417 381.95 302.417H394.517C396.599 302.417 398.287 300.729 398.287 298.647V254.139C398.287 252.057 396.6 250.369 394.517 250.369Z"
              fill="#B31E48"/>
        <path d="M398.287 261.27H315.818C315.046 261.27 314.32 261.459 313.677 261.788L314.472 270.498C314.899 270.625 315.35 270.695 315.818 270.695H398.287V261.27Z"
              fill="#D0E2ED"/>
        <path d="M398.288 261.272H385.721V270.697H398.288V261.272Z" fill="#AABFCF"/>
        <path d="M325.42 281.596C325.42 288.785 324.509 295.762 322.797 302.416H334.7C336.201 295.715 336.998 288.75 336.998 281.596C336.998 270.654 335.139 260.148 331.73 250.368H319.36C323.265 260.013 325.42 270.553 325.42 281.596Z"
              fill="#B31E48"/>
        <path d="M334.807 261.27H322.915C323.687 264.347 324.287 267.493 324.706 270.695H336.371C336.005 267.502 335.482 264.358 334.807 261.27Z"
              fill="#AABFCF"/>
        <path d="M341.035 307.129C338.432 307.129 336.322 305.019 336.322 302.416V292.007C336.322 289.403 338.432 287.294 341.035 287.294C343.639 287.294 345.748 289.403 345.748 292.007V302.416C345.747 305.019 343.638 307.129 341.035 307.129Z"
              fill="#FDBE40"/>
        <path d="M372.265 307.129C369.661 307.129 367.552 305.019 367.552 302.416V292.007C367.552 289.403 369.661 287.294 372.265 287.294C374.868 287.294 376.978 289.403 376.978 292.007V302.416C376.977 305.019 374.868 307.129 372.265 307.129Z"
              fill="#FDBE40"/>
        <path d="M190.677 341.183C188.316 340.089 185.514 341.115 184.419 343.476L175.411 362.891C174.316 365.253 175.342 368.054 177.703 369.149C178.344 369.447 179.019 369.588 179.683 369.588C181.461 369.588 183.163 368.576 183.961 366.857L192.969 347.441C194.064 345.08 193.038 342.279 190.677 341.183Z"
              fill="#FDBE40"/>
        <path d="M308.876 362.892L299.869 343.476C298.773 341.115 295.972 340.089 293.61 341.184C291.249 342.279 290.223 345.082 291.319 347.442L300.327 366.858C301.125 368.577 302.826 369.589 304.605 369.589C305.269 369.589 305.944 369.448 306.585 369.151C308.946 368.054 309.972 365.251 308.876 362.892Z"
              fill="#FDBE40"/>
        <path d="M242.144 364.874C288.135 364.874 325.419 327.59 325.419 281.599C325.419 235.608 288.135 198.325 242.144 198.325C196.153 198.325 158.87 235.608 158.87 281.599C158.87 327.59 196.153 364.874 242.144 364.874Z"
              fill="#DC1C4A"/>
        <path d="M242.144 349.26C279.512 349.26 309.804 318.967 309.804 281.599C309.804 244.232 279.512 213.939 242.144 213.939C204.776 213.939 174.484 244.232 174.484 281.599C174.484 318.967 204.776 349.26 242.144 349.26Z"
              fill="#D0E2ED"/>
        <path d="M112.025 297.703C109.422 297.703 107.312 299.813 107.312 302.416V312.826C107.312 315.429 109.422 317.539 112.025 317.539C114.628 317.539 116.738 315.429 116.738 312.826V302.416C116.737 299.813 114.627 297.703 112.025 297.703Z"
              fill="#FDBE40"/>
        <path d="M143.254 297.703C140.652 297.703 138.542 299.813 138.542 302.416V312.826C138.542 315.429 140.652 317.539 143.254 317.539C145.857 317.539 147.967 315.429 147.967 312.826V302.416C147.967 299.813 145.857 297.703 143.254 297.703Z"
              fill="#FDBE40"/>
        <path d="M160.359 360.404L129.13 349.994C128.163 349.671 127.116 349.671 126.149 349.994L94.9199 360.404C92.4508 361.227 91.1166 363.897 91.9388 366.365C92.5975 368.34 94.4358 369.588 96.409 369.588C96.903 369.588 97.4058 369.51 97.8999 369.345L127.639 359.431L157.378 369.345C159.845 370.168 162.515 368.834 163.339 366.364C164.162 363.895 162.827 361.227 160.359 360.404Z"
              fill="#AABFCF"/>
        <path d="M356.65 162.378C354.046 162.378 351.937 164.488 351.937 167.091V181.271C351.937 183.874 354.046 185.984 356.65 185.984C359.253 185.984 361.363 183.874 361.363 181.271V167.091C361.363 164.488 359.253 162.378 356.65 162.378Z"
              fill="#7D8F9E"/>
        <path d="M325.945 201.593L354.779 218.07C355.938 218.733 357.361 218.733 358.52 218.07L387.355 201.593C389.888 200.146 389.888 196.494 387.355 195.046L358.521 178.569C357.362 177.907 355.939 177.907 354.779 178.569L325.945 195.046C323.412 196.493 323.412 200.146 325.945 201.593Z"
              fill="#FDBE40"/>
        <path d="M189.858 104.873C188.018 103.033 185.034 103.033 183.194 104.873L165.107 122.96C163.266 124.802 163.266 127.785 165.107 129.625C166.027 130.545 167.233 131.005 168.439 131.005C169.645 131.005 170.851 130.545 171.771 129.625L189.858 111.538C191.698 109.697 191.698 106.714 189.858 104.873Z"
              fill="#7D8F9E"/>
        <path d="M134.999 164.444C133.793 164.444 132.587 163.984 131.667 163.064C129.827 161.222 129.827 158.239 131.667 156.399L161.111 126.955C162.952 125.115 165.935 125.115 167.775 126.955C169.616 128.796 169.616 131.779 167.775 133.62L138.332 163.064C137.412 163.984 136.206 164.444 134.999 164.444Z"
              fill="#7D8F9E"/>
        <path d="M143.352 98.8544L177.923 114.987C178.726 115.362 179.371 116.007 179.745 116.809L195.878 151.38C197.662 155.203 192.779 158.623 189.796 155.641L139.092 104.937C136.109 101.953 139.53 97.0706 143.352 98.8544Z"
              fill="#FDBE40"/>
        <path d="M211.939 171.12L123.612 82.7917C121.771 80.9516 118.787 80.9516 116.947 82.7917C115.106 84.633 115.106 87.616 116.947 89.4567L205.275 177.785C206.195 178.705 207.401 179.165 208.607 179.165C209.813 179.165 211.019 178.705 211.939 177.785C213.78 175.944 213.78 172.96 211.939 171.12Z"
              fill="#FFA912"/>
        <path d="M127.64 177.498C133.389 177.498 138.05 172.838 138.05 167.089C138.05 161.34 133.389 156.679 127.64 156.679C121.891 156.679 117.231 161.34 117.231 167.089C117.231 172.838 121.891 177.498 127.64 177.498Z"
              fill="#FDBE40"/>
        <path d="M242.144 339.831C206.36 339.831 177.069 312.052 174.649 276.882C174.541 278.44 174.483 280.011 174.483 281.596C174.483 318.965 204.776 349.258 242.145 349.258C279.514 349.258 309.807 318.965 309.807 281.596C309.807 280.011 309.748 278.44 309.641 276.882C307.22 312.052 277.928 339.831 242.144 339.831Z"
              fill="#AABFCF"/>
        <path d="M242.144 355.447C197.734 355.447 161.448 320.682 159.003 276.884C158.916 278.444 158.868 280.015 158.868 281.597C158.868 327.59 196.153 364.874 242.145 364.874C288.137 364.874 325.422 327.59 325.422 281.597C325.422 280.015 325.373 278.444 325.286 276.884C322.84 320.682 286.554 355.447 242.144 355.447Z"
              fill="#B31E48"/>
        <path d="M158.868 281.597C158.868 267.002 162.627 253.286 169.223 241.358L169.275 240.605V222.91C169.275 222.335 169.143 221.793 168.913 221.306C155.403 237.696 147.289 258.699 147.289 281.597C147.289 292.538 149.148 303.044 152.557 312.824H164.272L164.37 311.413C160.819 302.155 158.868 292.105 158.868 281.597Z"
              fill="#B31E48"/>
        <path d="M169.274 230.043H86V239.469H169.274V230.043Z" fill="#D0E2ED"/>
        <path d="M157.14 239.467H169.275V230.042H162.518C160.553 233.069 158.756 236.214 157.14 239.467Z"
              fill="#AABFCF"/>
        <path d="M398.287 193.607H315.011C312.407 193.607 310.298 195.717 310.298 198.32C310.298 200.924 312.407 203.033 315.011 203.033H398.288C400.891 203.033 403.001 200.924 403.001 198.32C403 195.717 400.891 193.607 398.287 193.607Z"
              fill="#FFA912"/>
    </g>
    <defs>
        <clipPath id="clip0_124_94">
            <rect width="317" height="317" fill="white" transform="translate(86 67)"/>
        </clipPath>
    </defs>
</svg>
