<svg width="480" height="480" viewBox="0 0 480 480" fill="none" xmlns="http://www.w3.org/2000/svg">
    <rect width="480" height="480" fill="#D4F8F5"/>
    <g clip-path="url(#clip0_124_360)">
        <path d="M342.785 147.464C342.785 147.464 363.24 150.679 372.555 129.968C375.826 122.695 382.6 118.055 388.298 115.287C392.912 113.046 394.45 107.232 391.468 103.058C389.332 100.068 385.473 98.8534 382.01 100.082L347.095 112.471L329.927 134.607L330.074 147.318L342.785 147.464Z"
              fill="#00A8AC"/>
        <path d="M391.468 103.058C390.246 101.347 388.46 100.221 386.508 99.7983C387.283 103.392 385.566 107.257 382 108.99C376.303 111.757 369.527 116.398 366.257 123.671C356.943 144.382 336.487 141.167 336.487 141.167L330.001 141.092L330.073 147.318L342.784 147.464C342.784 147.464 363.239 150.679 372.554 129.968C375.825 122.695 382.6 118.054 388.297 115.287C392.913 113.046 394.45 107.233 391.468 103.058Z"
              fill="#008992"/>
        <path d="M203.25 371.158C217.548 339.826 224.662 325.712 233.695 316.831C244.361 307.888 267.661 304.751 273.41 291.547C276.131 285.295 269.24 279.149 263.259 282.422C252.609 288.25 235.888 292.693 228.408 269.509L226.005 232C191.562 227.385 220.784 197.579 220.784 197.579C239.486 174.786 195.946 174.494 179.581 210.144C163.216 245.794 164.626 247.496 106.234 274.14C71.9549 289.782 77.3792 318.405 88.4051 340.155C99.0655 361.182 116.21 378.326 137.237 388.987C158.985 400.013 187.609 405.437 203.25 371.158Z"
              fill="#00A8AC"/>
        <path d="M263.26 282.422C260.908 283.709 258.26 284.928 255.482 285.797C246.231 293.641 229.629 297.085 221.099 304.236C212.068 313.118 204.952 327.231 190.655 358.564C175.013 392.843 146.39 387.418 124.641 376.392C116.806 372.421 109.511 367.547 102.889 361.909C112.382 373.059 124.045 382.3 137.237 388.988C158.985 400.014 187.609 405.438 203.251 371.16C217.548 339.828 224.664 325.713 233.695 316.832C244.362 307.889 267.662 304.752 273.41 291.547C276.132 285.295 269.241 279.149 263.26 282.422Z"
              fill="#008992"/>
        <path d="M342.785 147.464L329.928 134.607L190.393 265.374L212.018 286.999L342.785 147.464Z" fill="#485877"/>
        <path d="M195.742 297.023L180.368 281.65C176.705 277.987 170.768 277.987 167.104 281.65C163.441 285.313 163.441 291.251 167.104 294.914L182.478 310.287C186.141 313.95 192.079 313.95 195.742 310.287C199.405 306.624 199.405 300.686 195.742 297.023Z"
              fill="#485877"/>
        <path d="M175.254 327.381L150.012 302.139C147.299 299.426 142.9 299.426 140.187 302.139L130.726 311.601C128.013 314.314 128.013 318.713 130.726 321.426L155.967 346.667C158.68 349.38 163.079 349.38 165.792 346.667L175.254 337.206C177.966 334.492 177.966 330.094 175.254 327.381Z"
              fill="#485877"/>
        <path d="M107.007 333.672C105.798 333.672 104.589 333.211 103.667 332.289C101.823 330.444 101.823 327.453 103.667 325.609L107.417 321.859C109.261 320.015 112.252 320.014 114.096 321.859C115.941 323.703 115.941 326.694 114.096 328.539L110.346 332.289C109.424 333.211 108.215 333.672 107.007 333.672Z"
              fill="#3A484A"/>
        <path d="M148.443 375.109C147.234 375.109 146.026 374.648 145.103 373.726C143.259 371.881 143.259 368.891 145.103 367.046L148.853 363.296C150.698 361.452 153.688 361.452 155.533 363.296C157.378 365.141 157.378 368.131 155.533 369.976L151.783 373.726C150.861 374.648 149.652 375.109 148.443 375.109Z"
              fill="#3A484A"/>
        <path d="M132.495 359.264C128.758 359.264 125.116 357.741 122.383 355.009C119.426 352.052 117.887 348.031 118.16 343.976C118.334 341.373 120.584 339.406 123.189 339.58C125.792 339.755 127.759 342.006 127.585 344.609C127.495 345.944 128.034 347.3 129.063 348.329C130.092 349.358 131.445 349.896 132.783 349.807C135.385 349.634 137.637 351.601 137.811 354.203C137.986 356.806 136.018 359.058 133.415 359.232C133.109 359.253 132.801 359.264 132.495 359.264Z"
              fill="#3A484A"/>
    </g>
    <defs>
        <clipPath id="clip0_124_360">
            <rect width="313" height="313" fill="white" transform="translate(80 92)"/>
        </clipPath>
    </defs>
</svg>
