<svg width="480" height="480" viewBox="0 0 480 480" fill="none" xmlns="http://www.w3.org/2000/svg">
    <rect width="480" height="480" fill="#E8E1FF"/>
    <g clip-path="url(#clip0_124_791)">
        <path d="M339.031 122H140.969C130.493 122 122 130.493 122 140.969V339.031C122 349.507 130.493 358 140.969 358H339.031C349.507 358 358 349.507 358 339.031V140.969C358 130.493 349.507 122 339.031 122Z"
              fill="#6F7DFD"/>
        <path d="M225.739 336.427C172.569 336.427 129.312 293.17 129.312 240C129.312 186.83 172.569 143.573 225.739 143.573C278.909 143.573 322.165 186.83 322.165 240C322.165 293.17 278.909 336.427 225.739 336.427Z"
              fill="#535FCE"/>
        <path d="M293.478 203.612C310.794 203.612 324.832 189.574 324.832 172.258C324.832 154.941 310.794 140.903 293.478 140.903C276.161 140.903 262.123 154.941 262.123 172.258C262.123 189.574 276.161 203.612 293.478 203.612Z"
              fill="#EFEDEE"/>
        <path d="M225.74 324.556C272.44 324.556 310.297 286.699 310.297 240C310.297 193.301 272.44 155.444 225.74 155.444C179.041 155.444 141.184 193.301 141.184 240C141.184 286.699 179.041 324.556 225.74 324.556Z"
              fill="#334060"/>
        <path d="M225.74 308.245C263.431 308.245 293.986 277.691 293.986 240C293.986 202.309 263.431 171.754 225.74 171.754C188.049 171.754 157.495 202.309 157.495 240C157.495 277.691 188.049 308.245 225.74 308.245Z"
              fill="#485877"/>
        <path d="M225.74 275.675C245.444 275.675 261.416 259.703 261.416 240C261.416 220.297 245.444 204.324 225.74 204.324C206.037 204.324 190.065 220.297 190.065 240C190.065 259.703 206.037 275.675 225.74 275.675Z"
              fill="#334060"/>
        <path d="M225.74 257.036C235.149 257.036 242.777 249.409 242.777 240C242.777 230.591 235.149 222.964 225.74 222.964C216.332 222.964 208.704 230.591 208.704 240C208.704 249.409 216.332 257.036 225.74 257.036Z"
              fill="#485877"/>
        <path d="M225.739 247.131C223.914 247.131 222.089 246.435 220.697 245.042C217.913 242.258 217.913 237.743 220.697 234.958L288.438 167.217C291.222 164.432 295.737 164.432 298.522 167.217C301.307 170.002 301.307 174.517 298.522 177.301L230.781 245.042C229.389 246.434 227.564 247.131 225.739 247.131Z"
              fill="#B8B8B8"/>
        <path d="M334.273 249.032H328.643C326.141 249.032 324.113 251.06 324.113 253.562V334.501C324.113 337.003 326.141 339.031 328.643 339.031H334.273C336.775 339.031 338.803 337.003 338.803 334.501V253.562C338.803 251.06 336.775 249.032 334.273 249.032Z"
              fill="#EFEDEE"/>
        <path d="M338.805 274.36H324.115V295.248H338.805V274.36Z" fill="#B8B8B8"/>
        <path d="M340.142 269.613H322.774C320.092 269.613 317.916 271.788 317.916 274.471V276.148C317.916 278.83 320.091 281.005 322.774 281.005H340.142C342.825 281.005 345 278.83 345 276.148V274.471C345 271.788 342.825 269.613 340.142 269.613Z"
              fill="#334060"/>
        <path d="M145.766 153.954C150.289 153.954 153.954 150.288 153.954 145.766C153.954 141.244 150.289 137.578 145.766 137.578C141.244 137.578 137.578 141.244 137.578 145.766C137.578 150.288 141.244 153.954 145.766 153.954Z"
              fill="#334060"/>
        <path d="M145.766 342.417C150.289 342.417 153.954 338.751 153.954 334.229C153.954 329.706 150.289 326.041 145.766 326.041C141.244 326.041 137.578 329.706 137.578 334.229C137.578 338.751 141.244 342.417 145.766 342.417Z"
              fill="#334060"/>
    </g>
    <defs>
        <clipPath id="clip0_124_791">
            <rect width="236" height="236" fill="white" transform="translate(122 122)"/>
        </clipPath>
    </defs>
</svg>
