<svg width="480" height="480" viewBox="0 0 480 480" fill="none" xmlns="http://www.w3.org/2000/svg">
    <rect width="480" height="480" fill="#D0F7E5"/>
    <g clip-path="url(#clip0_124_725)">
        <path d="M110.715 388.314L91.6862 369.285C90.7713 368.37 90.7713 366.886 91.6862 365.971L365.971 91.6862C366.886 90.7713 368.37 90.7713 369.285 91.6862L388.314 110.715C389.229 111.629 389.229 113.113 388.314 114.029L114.028 388.314C113.113 389.228 111.629 389.228 110.715 388.314Z"
              fill="#B8C3DA"/>
        <path d="M372.639 95.0391L377.649 100.049L100.05 377.648L110.715 388.313C111.629 389.228 113.113 389.228 114.029 388.313L388.313 114.028C389.228 113.113 389.228 111.629 388.313 110.714L372.639 95.0391Z"
              fill="#98A1B4"/>
        <path d="M249.859 234.505C252.27 234.505 254.225 232.551 254.225 230.14C254.225 227.729 252.27 225.775 249.859 225.775C247.448 225.775 245.494 227.729 245.494 230.14C245.494 232.551 247.448 234.505 249.859 234.505Z"
              fill="#384256"/>
        <path d="M230.169 254.196C232.58 254.196 234.534 252.241 234.534 249.831C234.534 247.42 232.58 245.465 230.169 245.465C227.758 245.465 225.804 247.42 225.804 249.831C225.804 252.241 227.758 254.196 230.169 254.196Z"
              fill="#384256"/>
        <path d="M210.479 273.886C212.89 273.886 214.844 271.931 214.844 269.52C214.844 267.11 212.89 265.155 210.479 265.155C208.068 265.155 206.114 267.11 206.114 269.52C206.114 271.931 208.068 273.886 210.479 273.886Z"
              fill="#384256"/>
        <path d="M190.789 293.576C193.2 293.576 195.154 291.621 195.154 289.21C195.154 286.8 193.2 284.845 190.789 284.845C188.378 284.845 186.424 286.8 186.424 289.21C186.424 291.621 188.378 293.576 190.789 293.576Z"
              fill="#384256"/>
        <path d="M171.099 313.266C173.51 313.266 175.464 311.311 175.464 308.9C175.464 306.49 173.51 304.535 171.099 304.535C168.688 304.535 166.734 306.49 166.734 308.9C166.734 311.311 168.688 313.266 171.099 313.266Z"
              fill="#384256"/>
        <path d="M151.409 332.956C153.82 332.956 155.774 331.001 155.774 328.59C155.774 326.179 153.82 324.225 151.409 324.225C148.998 324.225 147.044 326.179 147.044 328.59C147.044 331.001 148.998 332.956 151.409 332.956Z"
              fill="#384256"/>
        <path d="M110.715 388.314L91.6862 369.285C90.7713 368.37 90.7713 366.886 91.6862 365.971L106.786 350.871L129.128 373.213L114.028 388.313C113.113 389.228 111.629 389.228 110.715 388.314Z"
              fill="#98A1B4"/>
        <path d="M344.756 165.387L289.918 219.594C289.002 220.499 287.526 220.495 286.615 219.585L273.693 206.674L260.087 193.084C259.168 192.166 259.171 190.674 260.096 189.76L314.934 135.553C315.85 134.647 317.327 134.652 318.238 135.562L331.865 149.178L344.765 162.062C345.685 162.981 345.681 164.473 344.756 165.387Z"
              fill="#98A1B4"/>
        <path d="M344.756 165.387L289.918 219.594C289.002 220.499 287.526 220.495 286.615 219.585L273.693 206.674L273.706 206.669L331.865 149.179L344.765 162.064C345.685 162.981 345.681 164.473 344.756 165.387Z"
              fill="#777F8E"/>
        <path d="M302.428 185.114C306.594 185.114 309.971 181.737 309.971 177.571C309.971 173.405 306.594 170.028 302.428 170.028C298.262 170.028 294.885 173.405 294.885 177.571C294.885 181.737 298.262 185.114 302.428 185.114Z"
              fill="#384256"/>
    </g>
    <defs>
        <clipPath id="clip0_124_725">
            <rect width="298" height="298" fill="white" transform="translate(91 91)"/>
        </clipPath>
    </defs>
</svg>
