<svg width="480" height="480" viewBox="0 0 480 480" fill="none" xmlns="http://www.w3.org/2000/svg">
    <rect width="480" height="480" fill="#D8DEFC"/>
    <g clip-path="url(#clip0_124_421)">
        <path d="M404.391 329.371H75.6094C74.1683 329.371 73 328.203 73 326.762V207.746H407V326.762C407 328.203 405.832 329.371 404.391 329.371Z"
              fill="#4E5BA6"/>
        <path d="M404.391 329.371H386.839V207.746H407V326.762C407 328.203 405.832 329.371 404.391 329.371Z"
              fill="#404497"/>
        <path d="M122.529 243.359H93.1607V329.371H122.529V243.359Z" fill="#EBF0F3"/>
        <path d="M151.897 243.359H122.529V329.371H151.897V243.359Z" fill="#D8DDDF"/>
        <path d="M181.263 243.359H151.894V329.371H181.263V243.359Z" fill="#EBF0F3"/>
        <path d="M210.631 243.359H181.263V329.371H210.631V243.359Z" fill="#D8DDDF"/>
        <path d="M240 243.359H210.631V329.371H240V243.359Z" fill="#EBF0F3"/>
        <path d="M269.369 243.359H240V329.371H269.369V243.359Z" fill="#D8DDDF"/>
        <path d="M298.737 243.359H269.369V329.371H298.737V243.359Z" fill="#EBF0F3"/>
        <path d="M328.106 243.359H298.737V329.371H328.106V243.359Z" fill="#D8DDDF"/>
        <path d="M357.474 243.359H328.106V329.371H357.474V243.359Z" fill="#EBF0F3"/>
        <path d="M386.843 243.359H357.474V329.371H386.843V243.359Z" fill="#D8DDDF"/>
        <path d="M407 217.669H73V153.238C73 151.797 74.1683 150.629 75.6094 150.629H404.391C405.832 150.629 407 151.797 407 153.238V217.669Z"
              fill="#6371BD"/>
        <path d="M407 217.669H386.839V150.629H404.391C405.832 150.629 407 151.797 407 153.238V217.669Z" fill="#4E5BA6"/>
        <path d="M176.157 194.639V172.979C176.157 171.538 177.325 170.37 178.766 170.37H301.234C302.675 170.37 303.843 171.538 303.843 172.979V194.639C303.843 196.08 302.675 197.249 301.234 197.249H178.766C177.325 197.249 176.157 196.081 176.157 194.639Z"
              fill="#3E3D6D"/>
        <path d="M136.507 194.639V172.979C136.507 171.538 137.675 170.37 139.116 170.37H154.058C155.499 170.37 156.668 171.538 156.668 172.979V194.639C156.668 196.08 155.499 197.249 154.058 197.249H139.116C137.675 197.249 136.507 196.081 136.507 194.639Z"
              fill="#3E3D6D"/>
        <path d="M323.332 194.639V172.979C323.332 171.538 324.5 170.37 325.941 170.37H340.883C342.324 170.37 343.492 171.538 343.492 172.979V194.639C343.492 196.08 342.324 197.249 340.883 197.249H325.941C324.5 197.249 323.332 196.081 323.332 194.639Z"
              fill="#3E3D6D"/>
        <path d="M128.656 290.633H116.402C114.961 290.633 113.792 289.464 113.792 288.023V243.359H131.265V288.023C131.265 289.464 130.097 290.633 128.656 290.633Z"
              fill="#485577"/>
        <path d="M158.024 290.633H145.77C144.329 290.633 143.16 289.464 143.16 288.023V243.359H160.633V288.023C160.633 289.464 159.465 290.633 158.024 290.633Z"
              fill="#485577"/>
        <path d="M216.59 290.633H204.336C202.895 290.633 201.727 289.464 201.727 288.023V243.359H219.2V288.023C219.199 289.464 218.031 290.633 216.59 290.633Z"
              fill="#485577"/>
        <path d="M246.127 290.633H233.873C232.432 290.633 231.263 289.464 231.263 288.023V243.359H248.736V288.023C248.736 289.464 247.568 290.633 246.127 290.633Z"
              fill="#485577"/>
        <path d="M275.897 290.404L263.643 290.592C262.186 290.614 260.994 289.44 260.994 287.982V243.359H278.467V287.794C278.466 289.22 277.323 290.382 275.897 290.404Z"
              fill="#485577"/>
        <path d="M334.23 290.365H321.976C320.535 290.365 319.367 289.196 319.367 287.755V243.359H336.84V287.755C336.84 289.196 335.671 290.365 334.23 290.365Z"
              fill="#485577"/>
        <path d="M118.793 179.728H106.697C103.995 179.728 101.804 177.538 101.804 174.835C101.804 172.132 103.995 169.942 106.697 169.942H118.793C121.495 169.942 123.686 172.132 123.686 174.835C123.686 177.538 121.495 179.728 118.793 179.728Z"
              fill="#3F3E96"/>
        <path d="M118.793 197.199H106.697C103.995 197.199 101.804 195.009 101.804 192.306C101.804 189.603 103.995 187.414 106.697 187.414H118.793C121.495 187.414 123.686 189.603 123.686 192.306C123.686 195.009 121.495 197.199 118.793 197.199Z"
              fill="#3F3E96"/>
        <path d="M373.303 179.728H361.207C358.505 179.728 356.314 177.538 356.314 174.835C356.314 172.132 358.505 169.942 361.207 169.942H373.303C376.005 169.942 378.196 172.132 378.196 174.835C378.196 177.538 376.005 179.728 373.303 179.728Z"
              fill="#3F3E96"/>
        <path d="M373.303 197.199H361.207C358.505 197.199 356.314 195.009 356.314 192.306C356.314 189.603 358.505 187.414 361.207 187.414H373.303C376.005 187.414 378.196 189.603 378.196 192.306C378.196 195.009 376.005 197.199 373.303 197.199Z"
              fill="#3F3E96"/>
        <path d="M363.598 290.397H351.344C349.903 290.397 348.735 289.229 348.735 287.788V243.359H366.208V287.787C366.208 289.229 365.039 290.397 363.598 290.397Z"
              fill="#485577"/>
    </g>
    <defs>
        <clipPath id="clip0_124_421">
            <rect width="334" height="334" fill="white" transform="translate(73 73)"/>
        </clipPath>
    </defs>
</svg>
