<svg width="480" height="480" viewBox="0 0 480 480" fill="none" xmlns="http://www.w3.org/2000/svg">
    <rect width="480" height="480" fill="#F1DBF4"/>
    <path d="M280.576 280.422L255.05 212.959H225.95L218.083 235.351L221.1 237.209L211.4 339.059L191.631 310.638L162.9 392.409H322.95L303.986 342.289L259.9 309.959L280.576 280.422Z"
          fill="#FFF5C4"/>
    <path d="M221.1 237.209L218.083 235.351L191.631 310.638L211.4 339.059L221.1 237.209Z" fill="#F3DAAA"/>
    <path d="M280.576 280.423L303.987 342.289L332.65 363.309L367.148 225.307L328.101 211.955L280.576 280.423Z"
          fill="#FFF5C4"/>
    <path d="M218.083 235.351L157.095 198.797L132.277 224.783L191.631 310.638L218.083 235.351Z" fill="#FFF5C4"/>
    <path d="M259.9 309.959L303.986 342.289L280.576 280.422L259.9 309.959Z" fill="#F3DAAA"/>
    <path d="M381.15 145.059H363.758L378.308 130.509H381.15C383.828 130.509 386 128.337 386 125.659C386 122.98 383.828 120.809 381.15 120.809H99.85C97.1716 120.809 95 122.98 95 125.659C95 128.337 97.1716 130.509 99.85 130.509H122.092L107.542 145.059H99.85C97.1716 145.059 95 147.23 95 149.909C95 152.587 97.1716 154.759 99.85 154.759H114.366L114.148 183.82C114.127 186.498 116.28 188.687 118.959 188.709C118.961 188.709 118.963 188.709 118.964 188.709H118.998C121.661 188.709 123.827 186.561 123.848 183.897L124.066 154.759H235.65V174.159C235.65 176.837 237.822 179.009 240.5 179.009C243.178 179.009 245.35 176.837 245.35 174.159V154.759H361.75V188.709C361.75 191.387 363.922 193.559 366.6 193.559C369.278 193.559 371.45 191.387 371.45 188.709V154.759H381.15C383.828 154.759 386 152.587 386 149.909C386 147.23 383.828 145.059 381.15 145.059ZM218.258 145.059L230.8 132.516L243.342 145.059H218.258ZM121.258 145.059L133.8 132.516L146.342 145.059H121.258ZM194.842 145.059H169.758L182.3 132.516L194.842 145.059ZM194.008 130.509H219.092L206.55 143.051L194.008 130.509ZM242.508 130.509H267.592L255.05 143.051L242.508 130.509ZM279.3 132.516L291.842 145.059H266.758L279.3 132.516ZM291.008 130.509H316.092L303.55 143.051L291.008 130.509ZM327.8 132.516L340.342 145.059H315.258L327.8 132.516ZM352.05 143.051L339.508 130.509H364.592L352.05 143.051ZM170.592 130.509L158.05 143.051L145.508 130.509H170.592Z"
          fill="#AFAFBC"/>
    <path d="M264.75 212.959V185.59C264.75 176.598 257.46 169.309 248.469 169.309H232.531C223.54 169.309 216.25 176.598 216.25 185.59V212.959H264.75Z"
          fill="#7484A4"/>
    <path d="M370.131 180.197L355.052 175.041C346.547 172.131 337.293 176.667 334.383 185.173C334.383 185.175 334.382 185.176 334.381 185.178L325.521 211.072L328.101 211.955L367.148 225.307L371.411 226.762L380.267 200.868C383.177 192.363 378.641 183.109 370.136 180.199C370.134 180.198 370.133 180.198 370.131 180.197Z"
          fill="#7484A4"/>
    <path d="M143.107 173.815C136.603 167.606 126.298 167.845 120.089 174.348L109.065 185.872C102.856 192.376 103.095 202.681 109.599 208.89L129.387 227.805L132.263 224.798L157.08 198.797L162.9 192.72L143.107 173.815Z"
          fill="#7484A4"/>
</svg>
