<svg width="480" height="480" viewBox="0 0 480 480" fill="none" xmlns="http://www.w3.org/2000/svg">
    <rect width="480" height="480" fill="#DDCEC7"/>
    <g clip-path="url(#clip0_124_514)">
        <path d="M285.17 212.361H194.83V190.899C194.83 189.576 195.904 188.502 197.227 188.502H282.773C284.096 188.502 285.17 189.576 285.17 190.899V212.361Z"
              fill="#4D4745"/>
        <path d="M112.356 362.137H99.0245C97.7388 362.137 96.6963 361.094 96.6963 359.808V257.357H114.684V359.808C114.684 361.094 113.642 362.137 112.356 362.137Z"
              fill="#3C3635"/>
        <path d="M380.976 362.137H367.644C366.358 362.137 365.316 361.094 365.316 359.808V257.357H383.304V359.808C383.304 361.094 382.261 362.137 380.976 362.137Z"
              fill="#3C3635"/>
        <path d="M374.082 211.331C372.435 211.331 370.859 210.395 370.12 208.803L333.466 129.868C332.45 127.681 333.4 125.085 335.587 124.07C337.774 123.055 340.369 124.004 341.385 126.191L378.039 205.126C379.054 207.313 378.104 209.909 375.918 210.924C375.323 211.2 374.697 211.331 374.082 211.331Z"
              fill="#5C5856"/>
        <path d="M362.41 126.993L109.145 210.868C105.122 212.2 100.793 209.979 99.4767 205.909C98.1601 201.837 100.354 197.457 104.377 196.125L357.642 112.251C361.665 110.918 365.994 113.139 367.311 117.209C368.627 121.281 366.433 125.661 362.41 126.993Z"
              fill="#4D4745"/>
        <path d="M248.995 257.354H231.008V347.126H248.995V257.354Z" fill="#5C5856"/>
        <path d="M380.906 257.357H99.0943V204.069H378.577C379.863 204.069 380.905 205.112 380.905 206.397L380.906 257.357Z"
              fill="#5C5856"/>
        <path d="M380.906 257.357H362.918V204.069H378.578C379.863 204.069 380.906 205.112 380.906 206.397V257.357Z"
              fill="#4D4745"/>
        <path d="M380.908 241.79H99.0943V257.357H380.908V241.79Z" fill="#FFDEA9"/>
        <path d="M371.012 241.79H353.025V257.357H371.012V241.79Z" fill="#FFBF7B"/>
        <path d="M248.994 342.47H231.006V328.838C231.006 323.875 235.03 319.851 239.994 319.851H240.007C244.971 319.851 248.995 323.874 248.995 328.838L248.994 342.47Z"
              fill="#3C3635"/>
        <path d="M224.41 342.47H206.423V328.838C206.423 323.875 210.446 319.851 215.41 319.851H215.423C220.387 319.851 224.411 323.874 224.411 328.838V342.47H224.41Z"
              fill="#3C3635"/>
        <path d="M273.577 342.47H255.59V328.838C255.59 323.875 259.613 319.851 264.577 319.851H264.59C269.554 319.851 273.578 323.874 273.578 328.838L273.577 342.47Z"
              fill="#3C3635"/>
        <path d="M250.793 229.615H229.207C226.796 229.615 224.842 227.661 224.842 225.25C224.842 222.839 226.796 220.885 229.207 220.885H250.793C253.203 220.885 255.158 222.839 255.158 225.25C255.158 227.661 253.204 229.615 250.793 229.615Z"
              fill="#FFDEA9"/>
        <path d="M389 244.115V275.383C389 276.669 387.958 277.711 386.672 277.711H93.3281C92.0424 277.711 91 276.669 91 275.383V244.115C91 242.83 92.0424 241.787 93.3281 241.787H108.988V257.354H371.012V241.787H386.672C387.958 241.787 389 242.829 389 244.115Z"
              fill="#4D4745"/>
        <path d="M386.672 277.711H371.012V241.787H386.672C387.958 241.787 389 242.83 389 244.115V275.383C389 276.669 387.958 277.711 386.672 277.711Z"
              fill="#3C3635"/>
        <path d="M280.175 353.38H199.825C198.502 353.38 197.428 352.307 197.428 350.983V340.209C197.428 338.886 198.502 337.812 199.825 337.812H280.175C281.498 337.812 282.572 338.886 282.572 340.209V350.983C282.572 352.307 281.498 353.38 280.175 353.38Z"
              fill="#3C3635"/>
    </g>
    <defs>
        <clipPath id="clip0_124_514">
            <rect width="298" height="298" fill="white" transform="translate(91 88)"/>
        </clipPath>
    </defs>
</svg>
