<svg width="480" height="480" viewBox="0 0 480 480" fill="none" xmlns="http://www.w3.org/2000/svg">
    <rect width="480" height="480" fill="#FFF0D2"/>
    <g clip-path="url(#clip0_124_683)">
        <path d="M294.731 230.683C277.52 242.598 265.791 260.908 262.168 281.528L252.996 332.837C252.016 338.318 246.781 341.964 241.302 340.985C235.823 340.005 232.175 334.772 233.154 329.29L266.768 141.243C271.326 117.915 258.927 94.5833 237.046 85.3031C211.906 75.3953 183.492 87.7275 173.561 112.859L170.553 120.512L161.436 115.553C156.576 112.902 150.484 114.673 147.799 119.514C145.143 124.401 146.945 130.514 151.828 133.177L170.972 143.6C173.513 144.994 176.528 145.228 179.254 144.24C181.977 143.255 184.144 141.143 185.203 138.445L189.902 126.478C191.33 122.824 195.141 120.691 199.002 121.378C201.257 121.782 203.24 123.103 204.481 125.027C205.719 126.953 206.101 129.306 205.534 131.524L159.692 310.712C153.857 333.814 158.631 358.315 172.706 377.538C185.73 394.88 204.96 406.508 226.369 409.98L228.888 410.43C272.72 418.266 314.606 389.086 322.442 345.251L322.747 343.546C325.448 328.195 334.176 314.563 346.99 305.688L294.731 230.683Z"
              fill="#FFBE40"/>
        <path d="M234.208 380.668L231.689 380.218C210.28 376.746 191.05 365.117 178.026 347.775C167.744 333.692 162.337 316.634 162.63 299.198L159.692 310.712C153.857 333.814 158.631 358.315 172.706 377.538C185.73 394.88 204.96 406.508 226.369 409.98L228.888 410.43C272.72 418.266 314.606 389.086 322.442 345.251C322.442 345.251 303.654 393.082 234.208 380.668Z"
              fill="#FF9900"/>
        <path d="M284.199 215.564C288.767 212.383 295.047 213.506 298.231 218.072L360.034 306.783C363.217 311.351 362.094 317.631 357.526 320.814C352.961 323.994 346.678 322.871 343.497 318.306L281.691 229.595C278.511 225.027 279.634 218.747 284.199 215.564Z"
              fill="#F89F36"/>
        <path d="M228.939 123.781L248.78 127.328L245.233 147.169L225.392 143.622L228.939 123.781Z" fill="white"/>
        <path d="M221.845 163.464L241.687 167.011L238.14 186.852L218.298 183.306L221.845 163.464Z" fill="white"/>
    </g>
    <defs>
        <clipPath id="clip0_124_683">
            <rect width="322.464" height="322.464" fill="white" transform="translate(117.742 63) rotate(10.1348)"/>
        </clipPath>
    </defs>
</svg>
