<svg width="480" height="480" viewBox="0 0 480 480" fill="none" xmlns="http://www.w3.org/2000/svg">
    <rect width="480" height="480" fill="#FDF5CB"/>
    <g clip-path="url(#clip0_124_606)">
        <path d="M215.443 239.978L203.18 227.716C199.793 224.328 199.793 218.84 203.18 215.453C206.568 212.066 212.056 212.066 215.443 215.453L227.706 227.716C231.093 231.103 231.093 236.591 227.706 239.978C224.318 243.366 218.831 243.366 215.443 239.978Z"
              fill="#FFE14D"/>
        <path d="M190.918 264.504L178.656 252.241C175.268 248.854 175.268 243.366 178.656 239.978C182.043 236.591 187.531 236.591 190.918 239.978L203.181 252.241C206.568 255.628 206.568 261.116 203.181 264.504C199.793 267.891 194.306 267.891 190.918 264.504Z"
              fill="#FFE14D"/>
        <path d="M166.393 289.029L154.131 276.766C150.743 273.379 150.743 267.891 154.131 264.503C157.518 261.116 163.006 261.116 166.393 264.503L178.656 276.766C182.043 280.153 182.043 285.641 178.656 289.029C175.268 292.416 169.78 292.416 166.393 289.029Z"
              fill="#FFE14D"/>
        <path d="M276.756 301.3L239.968 264.504C236.581 261.117 236.581 255.629 239.968 252.242C243.355 248.854 248.843 248.854 252.231 252.242L289.019 289.038C292.406 292.425 292.406 297.913 289.019 301.3C285.631 304.687 280.144 304.687 276.756 301.3Z"
              fill="#E1A42C"/>
        <path d="M252.231 325.825L215.443 289.029C212.056 285.642 212.056 280.154 215.443 276.766C218.83 273.379 224.318 273.379 227.706 276.766L264.493 313.562C267.881 316.95 267.881 322.438 264.493 325.825C261.106 329.212 255.619 329.212 252.231 325.825Z"
              fill="#E1A42C"/>
        <path d="M227.706 350.351L190.918 313.563C187.531 310.176 187.531 304.687 190.918 301.3C194.305 297.913 199.793 297.913 203.18 301.3L239.968 338.088C243.355 341.475 243.355 346.963 239.968 350.351C236.581 353.738 231.093 353.738 227.706 350.351Z"
              fill="#E1A42C"/>
        <path d="M184.787 356.482C171.257 342.969 171.196 321.022 184.787 307.431L246.1 246.11C259.616 232.577 281.634 232.577 295.15 246.11C308.683 259.635 308.683 281.644 295.15 295.169L233.837 356.482C220.333 370.002 198.303 370.014 184.787 356.482ZM258.362 258.373L197.049 319.694C190.284 326.477 190.258 337.409 197.049 344.219C203.824 350.977 214.8 350.977 221.575 344.219L282.888 282.906C289.645 276.14 289.645 265.139 282.888 258.372C276.115 251.617 265.151 251.601 258.362 258.373Z"
              fill="#FFBB33"/>
        <path d="M289.031 227.685L166.411 350.305L136.58 348.332L129.642 313.535L252.263 190.916L288.73 192.695L289.031 227.685Z"
              fill="#FFBB33"/>
        <path d="M288.73 192.695L287.321 192.626L136.176 343.88L136.58 348.331L166.411 350.305L289.031 227.685L288.73 192.695Z"
              fill="#E1A42C"/>
        <path d="M166.411 350.305L145.252 371.399C143.691 373.132 141.437 374.001 139.183 374.001C136.928 374.001 134.673 373.133 133.112 371.399L108.657 346.944C106.922 345.382 106.055 343.128 106.055 340.873C106.055 338.618 106.922 336.364 108.657 334.803L129.642 313.535L166.411 350.305Z"
              fill="#FFE14D"/>
        <path d="M401.245 188.139C399.858 191.435 396.736 193.516 393.267 193.516C392.573 193.516 322.852 194.036 289.031 227.683L252.262 190.914C285.909 157.094 286.43 87.3722 286.43 86.6784C286.43 83.2097 288.511 80.0878 291.806 78.7003C295.102 77.3128 298.744 78.0066 301.172 80.6081L350.255 129.691L399.337 178.774C401.939 181.202 402.633 184.844 401.245 188.139Z"
              fill="#FFE14D"/>
        <path d="M133.111 371.399C134.673 373.133 136.927 374.001 139.182 374.001C141.437 374.001 143.69 373.133 145.252 371.399L166.411 350.305L148.026 331.919L120.883 359.171L133.111 371.399Z"
              fill="#FFBB33"/>
        <path d="M401.245 188.139C399.858 191.435 396.736 193.516 393.267 193.516C392.573 193.516 322.852 194.036 289.031 227.683L270.647 209.299L350.255 129.691L399.337 178.774C401.939 181.202 402.633 184.844 401.245 188.139Z"
              fill="#FFBB33"/>
    </g>
    <defs>
        <clipPath id="clip0_124_606">
            <rect width="296" height="296" fill="white" transform="translate(106 78)"/>
        </clipPath>
    </defs>
</svg>
