<svg width="480" height="480" viewBox="0 0 480 480" fill="none" xmlns="http://www.w3.org/2000/svg">
    <rect width="480" height="480" fill="#EBEBEB"/>
    <path d="M238.149 235.249C255.336 235.249 270.219 229.084 282.379 216.922C294.539 204.762 300.703 189.884 300.703 172.695C300.703 155.512 294.539 140.631 282.377 128.467C270.215 116.309 255.334 110.145 238.149 110.145C220.96 110.145 206.082 116.309 193.922 128.469C181.762 140.629 175.596 155.51 175.596 172.695C175.596 189.884 181.762 204.764 193.924 216.924C206.086 229.082 220.966 235.249 238.149 235.249Z"
          fill="#B5B5B5"/>
    <path d="M347.602 309.849C347.251 304.789 346.542 299.269 345.497 293.439C344.443 287.566 343.086 282.014 341.461 276.94C339.783 271.695 337.5 266.515 334.679 261.552C331.75 256.4 328.31 251.914 324.451 248.223C320.414 244.361 315.473 241.256 309.758 238.991C304.064 236.739 297.753 235.597 291.002 235.597C288.351 235.597 285.787 236.685 280.835 239.909C277.788 241.896 274.223 244.195 270.245 246.737C266.842 248.904 262.234 250.935 256.541 252.774C250.987 254.571 245.348 255.483 239.782 255.483C234.216 255.483 228.579 254.571 223.019 252.774C217.332 250.937 212.724 248.906 209.325 246.739C205.384 244.22 201.818 241.922 198.725 239.907C193.779 236.683 191.213 235.595 188.562 235.595C181.809 235.595 175.5 236.739 169.808 238.993C164.097 241.254 159.154 244.359 155.114 248.225C151.256 251.918 147.814 256.402 144.889 261.552C142.07 266.515 139.787 271.693 138.107 276.942C136.484 282.016 135.127 287.566 134.073 293.439C133.028 299.261 132.319 304.783 131.968 309.855C131.624 314.825 131.449 319.982 131.449 325.192C131.449 338.749 135.759 349.724 144.257 357.818C152.651 365.805 163.757 369.857 177.262 369.857H302.314C315.819 369.857 326.921 365.807 335.317 357.818C343.817 349.73 348.127 338.752 348.127 325.19C348.125 319.957 347.948 314.795 347.602 309.849Z"
          fill="#B5B5B5"/>
</svg>
