<svg width="480" height="480" viewBox="0 0 480 480" fill="none" xmlns="http://www.w3.org/2000/svg">
    <rect width="480" height="480" fill="#DAF5F5"/>
    <g clip-path="url(#clip0_124_758)">
        <path d="M288.314 278.481C283.413 294.185 270.445 306.782 249.757 315.923L245.487 317.81L241.524 315.351C239.672 314.236 233.261 311.24 228.715 312.414C227.452 312.739 225.801 313.47 224.203 316.254C218.335 326.45 228.992 337.16 229.451 337.608L233.485 341.501L231.657 346.773C231.062 348.53 216.748 389.841 183.08 397.715C179.418 398.57 175.696 399 171.922 399C155.067 399 137.151 390.461 118.45 373.494C116.422 371.661 114.387 369.726 112.341 367.68C112.24 367.585 112.146 367.491 112.046 367.391C109.899 365.244 107.864 363.109 105.942 360.98C85.7264 338.616 77.7529 317.238 82.2292 297.322C89.8311 263.46 130.771 248.451 132.51 247.832L137.895 245.903L141.864 250.02C142.277 250.439 152.98 261.101 163.189 255.233C165.978 253.623 166.71 251.954 167.028 250.68C168.208 245.997 164.952 239.316 164.079 237.912L161.626 233.943L163.513 229.679C172.648 208.991 185.245 196.017 200.956 191.122C220.683 184.965 240.25 193.133 253.195 201.071L248.565 208.614L259.989 220.031L270.822 230.865L278.365 226.241C286.297 239.18 294.471 258.748 288.314 278.481Z"
              fill="#B36144"/>
        <path d="M288.314 278.481C283.413 294.186 270.445 306.783 249.757 315.924L245.487 317.811L241.524 315.351C239.672 314.237 233.261 311.241 228.715 312.415C227.452 312.739 225.801 313.47 224.203 316.254C218.335 326.451 228.992 337.16 229.451 337.609L233.485 341.501L231.657 346.773C231.062 348.53 216.748 389.842 183.08 397.715C179.418 398.57 175.696 399.001 171.922 399.001C155.067 399.001 137.151 390.462 118.45 373.495C116.422 371.661 114.387 369.726 112.341 367.68L259.988 220.033L270.822 230.866L278.365 226.243C286.297 239.181 294.471 258.748 288.314 278.481Z"
              fill="#8D4D36"/>
        <path d="M184.408 307.537L191.184 314.313L178.676 326.827L171.9 320.045L118.452 373.493C116.423 371.66 114.388 369.725 112.342 367.679C112.242 367.584 112.147 367.49 112.047 367.39C109.901 365.243 107.866 363.108 105.943 360.979L159.386 307.537L152.609 300.761L165.118 288.253L171.9 295.029L218.489 248.434L225.041 254.98L231.003 260.942L184.408 307.537Z"
              fill="#57555C"/>
        <path d="M231.003 260.942L184.408 307.537L191.184 314.313L178.676 326.827L171.9 320.045L118.452 373.493C116.423 371.659 114.388 369.725 112.342 367.679L225.041 254.979L231.003 260.942Z"
              fill="#2A2A2C"/>
        <path d="M382.979 123.066L351.516 155.048L343.048 163.658L238.575 269.858L224.251 255.77L209.649 241.404L315.518 137.256L324.412 128.504L356.441 97L369.851 110.169L382.979 123.066Z"
              fill="#F5C28E"/>
        <path d="M382.979 123.066L351.516 155.048L343.048 163.658L329.424 150.596L315.518 137.256L324.412 128.504L356.441 97L369.851 110.169L382.979 123.066Z"
              fill="#B36144"/>
        <path d="M382.979 123.066L351.517 155.048L343.048 163.658L238.575 269.859L224.251 255.77L369.851 110.169L382.979 123.066Z"
              fill="#CFA478"/>
        <path d="M382.979 123.066L351.517 155.048L343.048 163.658L329.425 150.596L369.851 110.169L382.979 123.066Z"
              fill="#8D4D36"/>
    </g>
    <defs>
        <clipPath id="clip0_124_758">
            <rect width="302" height="302" fill="white" transform="translate(81 97)"/>
        </clipPath>
    </defs>
</svg>
