<svg width="480" height="480" viewBox="0 0 480 480" fill="none" xmlns="http://www.w3.org/2000/svg">
    <rect width="480" height="480" fill="#FFE0D3"/>
    <g clip-path="url(#clip0_124_824)">
        <path d="M311.209 229.4L144.088 377.68C137.303 383.7 127.003 383.393 120.589 376.979L103.021 359.412C96.6072 352.998 96.2999 342.697 102.32 335.912L250.6 168.791L311.209 229.4Z"
              fill="#596775"/>
        <path d="M302.101 220.292L137.913 365.97C137.108 366.684 136.189 367.275 135.166 367.607C132.424 368.498 129.533 367.74 127.603 365.809L112.113 350.32C108.298 346.506 102.686 345.597 98.0061 347.578C98.0788 351.878 99.7578 356.148 103.021 359.411L120.589 376.978C127.002 383.392 137.303 383.7 144.088 377.68L311.209 229.4L302.101 220.292Z"
              fill="#4D5967"/>
        <path d="M382 166.143C382 128.508 351.491 98 313.857 98C276.222 98 245.714 128.508 245.714 166.143C245.714 168.735 245.864 171.293 246.146 173.81L306.189 233.854C308.707 234.135 311.264 234.286 313.857 234.286C351.491 234.286 382 203.777 382 166.143Z"
              fill="#D8D8D7"/>
        <path d="M382 166.143C382 139.619 366.845 116.636 344.722 105.377C349.439 114.644 352.1 125.132 352.1 136.242C352.1 173.877 321.591 204.385 283.957 204.385C281.364 204.385 278.806 204.234 276.288 203.952L306.19 233.854C308.707 234.135 311.265 234.285 313.857 234.285C351.491 234.286 382 203.777 382 166.143Z"
              fill="#CBC9C3"/>
        <path d="M372.125 204.224L275.778 107.877C274.104 106.204 271.39 106.204 269.717 107.877L257.595 119.999C255.923 121.671 255.922 124.386 257.595 126.059L353.942 222.406C355.616 224.08 358.33 224.08 360.003 222.406L372.125 210.285C373.797 208.612 373.798 205.897 372.125 204.224Z"
              fill="#BBBBBA"/>
        <path d="M275.778 107.877C274.104 106.204 271.39 106.204 269.717 107.877L263.656 113.938L347.882 198.163C352.903 203.184 352.903 211.325 347.882 216.346L353.943 222.406C355.617 224.08 358.33 224.08 360.004 222.406L372.125 210.285C373.799 208.611 373.799 205.897 372.125 204.224L275.778 107.877Z"
              fill="#9D9D9B"/>
        <path d="M228.658 264.199C225.367 264.199 222.076 262.943 219.566 260.433C214.546 255.412 214.546 247.271 219.566 242.251L242.249 219.568C247.27 214.547 255.411 214.547 260.432 219.568C265.452 224.589 265.452 232.73 260.432 237.75L237.749 260.433C235.239 262.943 231.948 264.199 228.658 264.199Z"
              fill="#35404A"/>
        <path d="M306.168 238.118C305.071 238.118 303.974 237.7 303.137 236.863L243.137 176.863C241.463 175.189 241.463 172.475 243.137 170.802C244.811 169.129 247.524 169.129 249.198 170.802L309.198 230.802C310.871 232.475 310.871 235.19 309.198 236.863C308.361 237.699 307.264 238.118 306.168 238.118Z"
              fill="#4D5967"/>
    </g>
    <defs>
        <clipPath id="clip0_124_824">
            <rect width="284" height="284" fill="white" transform="translate(98 98)"/>
        </clipPath>
    </defs>
</svg>
