<svg id="레이어_1" data-name="레이어 1" xmlns="http://www.w3.org/2000/svg" viewBox="0 0 1648.51 790.06"><defs><style>.cls-1,.cls-4{fill:none;stroke-linecap:round;stroke-linejoin:round;stroke-width:11px;}.cls-1,.cls-3{stroke:#000;}.cls-2,.cls-5{isolation:isolate;}.cls-3,.cls-5{stroke-miterlimit:10;}.cls-4,.cls-5{stroke:#fff;}.cls-5{font-size:150.73px;fill:#fff;font-family:SDNemony2dBasicBd-KSCpc-EUC-H, Sandoll Nemony2;}.cls-6{letter-spacing:-0.01em;}.cls-7{letter-spacing:-0.03em;}.cls-8{letter-spacing:0em;}</style></defs><g id="그룹_2" data-name="그룹 2"><path id="패스_1" data-name="패스 1" class="cls-1" d="M233.24,821.53H210" transform="translate(-173.25 -36.97)"/><g id="그룹_1" data-name="그룹 1"><path id="패스_2" data-name="패스 2" class="cls-1" d="M233.24,792V633.78" transform="translate(-173.25 -36.97)"/><line id="선_1" data-name="선 1" class="cls-1" x1="132.35" y1="617.17" x2="90.38" y2="617.17"/><line id="선_2" data-name="선 2" class="cls-1" x1="132.35" y1="617.17" x2="90.38" y2="617.17"/><path id="패스_3" data-name="패스 3" class="cls-1" d="M233.25,737.61h-54.5" transform="translate(-173.25 -36.97)"/><path id="패스_4" data-name="패스 4" class="cls-1" d="M233.25,821.53V504.47l35.23,62.2L178.75,737.61h83" transform="translate(-173.25 -36.97)"/><line id="선_3" data-name="선 3" class="cls-1" x1="132.35" y1="617.17" x2="88.54" y2="700.64"/><line id="선_4" data-name="선 4" class="cls-1" x1="71.6" y1="652.94" x2="90.38" y2="617.17"/><path id="패스_5" data-name="패스 5" class="cls-1" d="M233.24,712" transform="translate(-173.25 -36.97)"/></g></g><g id="SYNCROOM_KOREA" data-name="SYNCROOM KOREA" class="cls-2"><g class="cls-2"><path class="cls-3" d="M415,710.62a91.44,91.44,0,0,1,14-17.34c9.95,8.59,21.86,14.77,32.56,14.77,9.65,0,16.28-5.12,16.28-13.86,0-8.9-3.32-13.12-25-20.65-22.31-7.69-32.71-18.09-32.71-35.42,0-22.46,14.17-35,39.79-35a53.12,53.12,0,0,1,38.29,16.13,68.51,68.51,0,0,1-13.87,15.82c-8.74-7.53-15.68-10.7-25.62-10.85-9.65-.15-15.08,4.82-15.08,12.66,0,8.44,4.53,12.66,23.07,19.14,24.26,8.44,34.06,18.54,34.06,37.08,0,22.91-13.72,36.33-41.15,36.33C440.91,729.46,426.74,722.67,415,710.62Z" transform="translate(-173.25 -36.97)"/><path class="cls-3" d="M566,680.92c.16,16,0,38.89-.3,46.28a96.24,96.24,0,0,1-22.76,0c-.3-6.64-.45-29.7-.3-46-12.81-23.06-29.69-54.41-36.93-69a95.06,95.06,0,0,1,21.41-9.49c6.18,11,20.35,39.18,27.13,53.5,6.78-14.32,21-42.5,27.13-53.5a95,95,0,0,1,21.4,9.49C595.56,626.81,578.83,657.86,566,680.92Z" transform="translate(-173.25 -36.97)"/><path class="cls-3" d="M613.94,605c6.48-.91,17.34-.91,21.56,0C647,622.29,674.84,669,682.22,683c-.45-10.85-.45-64.81,0-78.07,7.24-.91,17.64-.91,22.76,0,.3,26.53.3,98.42,0,122.24-5.27,1-13.26,1-20.35,0-9.49-14.17-39.49-64.51-47.93-80.34.3,15.22.46,69.79,0,80.34a88.9,88.9,0,0,1-22.76,0C613.64,702.33,613.64,631.49,613.94,605Z" transform="translate(-173.25 -36.97)"/><path class="cls-3" d="M719.6,666.3c0-44,20-63.15,52.15-63.15,16.13,0,27.44,4.07,38.44,16a52.06,52.06,0,0,1-13.27,15.68c-6-6.18-13.71-9.95-25.17-9.95-17.33,0-28.94,11.31-28.94,41.45s11.61,41.45,29.55,41.45c11.75,0,20.34-3.61,26.52-10a52.69,52.69,0,0,1,13.27,15.83c-11.16,11.76-23.06,15.83-39.79,15.83C739.65,729.46,719.6,710.32,719.6,666.3Z" transform="translate(-173.25 -36.97)"/><path class="cls-3" d="M895.05,730.21c-10.1-14.62-21.56-32.56-30.9-47.93-5.13,0-11.76,0-16.73-.15,0,21.1,0,40.85-.15,45.07a97.45,97.45,0,0,1-22.91,0c-.31-16.88-.31-109.13,0-122.24,13.86-.3,35.72-.46,48.23,0,25.92.9,37.53,16.12,37.53,38,0,18.84-7.84,30.75-21.7,36,9.19,13.72,20,30.9,25.32,39.8A60.67,60.67,0,0,1,895.05,730.21Zm-25.93-69.63c12.81-.46,17.94-6.33,17.94-16.74,0-11.15-5.13-16.58-17.94-17.18-6-.3-15.82-.3-21.85,0,.15,3.17.15,17.34.15,34.07C854.5,660.88,861.74,660.88,869.12,660.58Z" transform="translate(-173.25 -36.97)"/><path class="cls-3" d="M923.08,666.3c0-44.31,18.24-63.15,52-63.15s52,18.84,52,63.15c0,45.52-19.44,63.16-52,63.16C941.47,729.46,923.08,710.92,923.08,666.3Zm80.79,0c0-27.88-7.69-41.6-28.79-41.6-19.29,0-28.79,11.31-28.79,41.6,0,31.05,10.1,41.6,28.79,41.6C993.32,707.9,1003.87,698,1003.87,666.3Z" transform="translate(-173.25 -36.97)"/><path class="cls-3" d="M1037.33,666.3c0-44.31,18.24-63.15,52-63.15s52,18.84,52,63.15c0,45.52-19.44,63.16-52,63.16C1055.72,729.46,1037.33,710.92,1037.33,666.3Zm80.79,0c0-27.88-7.69-41.6-28.79-41.6-19.29,0-28.79,11.31-28.79,41.6,0,31.05,10.1,41.6,28.79,41.6C1107.57,707.9,1118.12,698,1118.12,666.3Z" transform="translate(-173.25 -36.97)"/><path class="cls-3" d="M1156.1,605c8.9-.61,28.64-.61,36.63,0,3.47,15.07,12.51,54.86,19.6,90.13,6.93-35.27,16-75.06,19.44-90.13,8-.61,27.73-.61,36.63,0,.15,25.92.45,96.61,0,122.24a88.77,88.77,0,0,1-21.86,0c-.45-13.57.3-59.24.15-94.36-6.93,32-20.2,83.66-23.21,93.9a157.25,157.25,0,0,1-22.46,0c-3-10.24-16.28-61.94-23.21-93.9-.15,35.12.6,80.79.15,94.36a88.77,88.77,0,0,1-21.86,0C1155.65,701.57,1156,630.88,1156.1,605Z" transform="translate(-173.25 -36.97)"/><path class="cls-3" d="M1406.46,716.8a63,63,0,0,1-17,14.32c-14.63-15.38-33.16-36.93-47.18-54,0,20.34,0,39.49-.15,50a96.21,96.21,0,0,1-22.76,0c-.6-23.82-.6-94.81,0-122.24a113.84,113.84,0,0,1,22.76,0c.15,10.25.15,27.28.15,45.52,15.07-18.09,35-41.45,41.75-48.39,5.43,2.72,13.26,8.75,17,13.57-7.84,10.7-32.41,38.89-42.35,48.08C1370.74,675.8,1396.81,705,1406.46,716.8Z" transform="translate(-173.25 -36.97)"/><path class="cls-3" d="M1407.66,666.3c0-44.31,18.24-63.15,52-63.15s52,18.84,52,63.15c0,45.52-19.45,63.16-52,63.16C1426.05,729.46,1407.66,710.92,1407.66,666.3Zm80.79,0c0-27.88-7.68-41.6-28.79-41.6-19.29,0-28.78,11.31-28.78,41.6,0,31.05,10.09,41.6,28.78,41.6C1477.9,707.9,1488.45,698,1488.45,666.3Z" transform="translate(-173.25 -36.97)"/><path class="cls-3" d="M1596.83,730.21c-10.1-14.62-21.56-32.56-30.9-47.93-5.13,0-11.76,0-16.73-.15,0,21.1,0,40.85-.16,45.07a97.45,97.45,0,0,1-22.91,0c-.3-16.88-.3-109.13,0-122.24,13.87-.3,35.73-.46,48.24,0,25.92.9,37.53,16.12,37.53,38,0,18.84-7.84,30.75-21.71,36,9.2,13.72,20,30.9,25.32,39.8A60.5,60.5,0,0,1,1596.83,730.21Zm-25.93-69.63c12.81-.46,17.94-6.33,17.94-16.74,0-11.15-5.13-16.58-17.94-17.18-6-.3-15.83-.3-21.86,0,.16,3.17.16,17.34.16,34.07C1556.28,660.88,1563.51,660.88,1570.9,660.58Z" transform="translate(-173.25 -36.97)"/><path class="cls-3" d="M1706.7,727.2c-12.2.3-64.36.3-77.47,0-.15-40.4-.15-81.24,0-122.24,13.11-.46,64.81-.46,76.57,0a125.63,125.63,0,0,1,0,21.25c-5.58.45-46.27.15-52.6,0,.15,5,.15,16,.15,28.34,15.82-.15,41.3-.15,46.27.3a127.42,127.42,0,0,1,0,21.4c-4.82.3-30.3.45-46.27.3,0,13.57-.15,25.63-.15,29.7,6.93-.31,48.23-.31,53.5,0A120.13,120.13,0,0,1,1706.7,727.2Z" transform="translate(-173.25 -36.97)"/><path class="cls-3" d="M1798,730.06c-2.56-7.39-6-17.64-9.64-28.94-11.76.3-30.3.3-42.36,0l-9.79,28.94a80.31,80.31,0,0,1-21.86-6.33c6-19,29.54-89.83,39.94-118.77a144.32,144.32,0,0,1,25.63,0c10.55,28.94,33.91,99.78,39.94,118.77A82.54,82.54,0,0,1,1798,730.06Zm-30.9-95.56c-3.76,12.66-8.89,28.94-14,45.07h28.18C1776,663.44,1770.91,647.16,1767.14,634.5Z" transform="translate(-173.25 -36.97)"/></g></g><g id="그룹_2-2" data-name="그룹 2"><path id="패스_1-2" data-name="패스 1" class="cls-4" d="M233.24,359.53H210" transform="translate(-173.25 -36.97)"/><g id="그룹_1-2" data-name="그룹 1"><path id="패스_2-2" data-name="패스 2" class="cls-4" d="M233.24,330V171.78" transform="translate(-173.25 -36.97)"/><line id="선_1-2" data-name="선 1" class="cls-4" x1="132.35" y1="155.17" x2="90.38" y2="155.17"/><line id="선_2-2" data-name="선 2" class="cls-4" x1="132.35" y1="155.17" x2="90.38" y2="155.17"/><path id="패스_3-2" data-name="패스 3" class="cls-4" d="M233.25,275.61h-54.5" transform="translate(-173.25 -36.97)"/><path id="패스_4-2" data-name="패스 4" class="cls-4" d="M233.25,359.53V42.47l35.23,62.2L178.75,275.61h83" transform="translate(-173.25 -36.97)"/><line id="선_3-2" data-name="선 3" class="cls-4" x1="132.35" y1="155.17" x2="88.54" y2="238.64"/><line id="선_4-2" data-name="선 4" class="cls-4" x1="71.6" y1="190.94" x2="90.38" y2="155.17"/><path id="패스_5-2" data-name="패스 5" class="cls-4" d="M233.24,250" transform="translate(-173.25 -36.97)"/></g></g><g id="SYNCROOM_KOREA-2" data-name="SYNCROOM KOREA" class="cls-2"><text class="cls-5" transform="translate(236.61 211.49)"><tspan class="cls-6">S</tspan><tspan x="94.2" y="0">YNCROOM </tspan><tspan class="cls-7" x="899.83" y="0">K</tspan><tspan class="cls-8" x="992.68" y="0">OREA</tspan></text></g></svg>